<?xml version="1.0" encoding="utf-8"?>
<svg version="1.1" xmlns:xlink="http://www.w3.org/1999/xlink" width="8px" height="10px" xmlns="http://www.w3.org/2000/svg">
  <defs>
    <pattern id="BGPattern" patternUnits="userSpaceOnUse" alignment="0 0" imageRepeat="None" />
    <mask fill="white" id="Clip1">
      <path d="M 7.86254295532646 0.6012024048096187  C 7.954180985108821 0.6680026720106869  8 0.7448229792919159  8 0.8316633266533069  C 8 0.9185036740146957  7.954180985108821 0.9953239812959247  7.86254295532646 1.062124248496994  L 2.4604810996563575 5  L 7.86254295532646 8.937875751503006  C 7.954180985108821 9.004676018704075  8 9.081496325985302  8 9.168336673346694  C 8 9.255177020708082  7.954180985108821 9.331997327989312  7.86254295532646 9.39879759519038  L 7.175257731958763 9.899799599198397  C 7.083619702176404 9.966599866399466  6.9782359679266905 10  6.859106529209622 10  C 6.739977090492555 10  6.634593356242842 9.966599866399466  6.542955326460481 9.899799599198397  L 0.13745704467353953 5.230460921843687  C 0.04581901489117987 5.163660654642618  0 5.086840347361389  0 5  C 0 4.91315965263861  0.04581901489117987 4.836339345357381  0.13745704467353953 4.769539078156313  L 6.542955326460481 0.1002004008016033  C 6.634593356242842 0.033400133600534065  6.739977090492555 0  6.859106529209622 0  C 6.9782359679266905 0  7.083619702176404 0.033400133600534065  7.175257731958763 0.1002004008016033  L 7.86254295532646 0.6012024048096187  Z " fill-rule="evenodd" />
    </mask>
  </defs>
  <g transform="matrix(1 0 0 1 -81 -73 )">
    <path d="M 7.86254295532646 0.6012024048096187  C 7.954180985108821 0.6680026720106869  8 0.7448229792919159  8 0.8316633266533069  C 8 0.9185036740146957  7.954180985108821 0.9953239812959247  7.86254295532646 1.062124248496994  L 2.4604810996563575 5  L 7.86254295532646 8.937875751503006  C 7.954180985108821 9.004676018704075  8 9.081496325985302  8 9.168336673346694  C 8 9.255177020708082  7.954180985108821 9.331997327989312  7.86254295532646 9.39879759519038  L 7.175257731958763 9.899799599198397  C 7.083619702176404 9.966599866399466  6.9782359679266905 10  6.859106529209622 10  C 6.739977090492555 10  6.634593356242842 9.966599866399466  6.542955326460481 9.899799599198397  L 0.13745704467353953 5.230460921843687  C 0.04581901489117987 5.163660654642618  0 5.086840347361389  0 5  C 0 4.91315965263861  0.04581901489117987 4.836339345357381  0.13745704467353953 4.769539078156313  L 6.542955326460481 0.1002004008016033  C 6.634593356242842 0.033400133600534065  6.739977090492555 0  6.859106529209622 0  C 6.9782359679266905 0  7.083619702176404 0.033400133600534065  7.175257731958763 0.1002004008016033  L 7.86254295532646 0.6012024048096187  Z " fill-rule="nonzero" fill="rgba(255, 255, 255, 1)" stroke="none" transform="matrix(1 0 0 1 81 73 )" class="fill" />
    <path d="M 7.86254295532646 0.6012024048096187  C 7.954180985108821 0.6680026720106869  8 0.7448229792919159  8 0.8316633266533069  C 8 0.9185036740146957  7.954180985108821 0.9953239812959247  7.86254295532646 1.062124248496994  L 2.4604810996563575 5  L 7.86254295532646 8.937875751503006  C 7.954180985108821 9.004676018704075  8 9.081496325985302  8 9.168336673346694  C 8 9.255177020708082  7.954180985108821 9.331997327989312  7.86254295532646 9.39879759519038  L 7.175257731958763 9.899799599198397  C 7.083619702176404 9.966599866399466  6.9782359679266905 10  6.859106529209622 10  C 6.739977090492555 10  6.634593356242842 9.966599866399466  6.542955326460481 9.899799599198397  L 0.13745704467353953 5.230460921843687  C 0.04581901489117987 5.163660654642618  0 5.086840347361389  0 5  C 0 4.91315965263861  0.04581901489117987 4.836339345357381  0.13745704467353953 4.769539078156313  L 6.542955326460481 0.1002004008016033  C 6.634593356242842 0.033400133600534065  6.739977090492555 0  6.859106529209622 0  C 6.9782359679266905 0  7.083619702176404 0.033400133600534065  7.175257731958763 0.1002004008016033  L 7.86254295532646 0.6012024048096187  Z " stroke-width="0" stroke-dasharray="0" stroke="rgba(255, 255, 255, 0)" fill="none" transform="matrix(1 0 0 1 81 73 )" class="stroke" mask="url(#Clip1)" />
  </g>
</svg>