<?xml version="1.0" encoding="utf-8"?>
<svg version="1.1" xmlns:xlink="http://www.w3.org/1999/xlink" width="15px" height="15px" viewBox="848 230 15 15" xmlns="http://www.w3.org/2000/svg">
  <path d="M 855.5 230  C 859.7 230  863 233.3  863 237.5  C 863 241.7  859.7 245  855.5 245  C 851.3 245  848 241.7  848 237.5  C 848 233.3  851.3 230  855.5 230  Z " fill-rule="nonzero" fill="rgba(255, 255, 255, 1)" stroke="none" class="fill" />
  <path d="M 855.5 230.5  C 859.42 230.5  862.5 233.58  862.5 237.5  C 862.5 241.42  859.42 244.5  855.5 244.5  C 851.58 244.5  848.5 241.42  848.5 237.5  C 848.5 233.58  851.58 230.5  855.5 230.5  Z " stroke-width="1" stroke-dasharray="0" stroke="rgba(0, 114, 231, 1)" fill="none" class="stroke" stroke-dashoffset="0.5" />
  <path d="M 855.5 241.25  C 853.4 241.25  851.75 239.6  851.75 237.5  C 851.75 235.4  853.4 233.75  855.5 233.75  C 857.6 233.75  859.25 235.4  859.25 237.5  C 859.25 239.6  857.6 241.25  855.5 241.25  " fill-rule="nonzero" fill="rgba(0, 114, 231, 1)" stroke="none" class="stroke btn_check" />
</svg>