<?xml version="1.0" encoding="utf-8"?>
<svg version="1.1" xmlns:xlink="http://www.w3.org/1999/xlink" width="120px" height="10px" preserveAspectRatio="xMinYMid meet" viewBox="1135 180 120 8" xmlns="http://www.w3.org/2000/svg">
  <path d="M 1250.5 209  L 1250.5 189  A 5 5 0 0 0 1245.5 184.5 L 1145 184.5  A 5 5 0 0 1 1140.5 179.5 L 1140.5 163  A 5 5 0 0 1 1145.5 158.5 L 1151 158.5  " stroke-width="1" stroke-dasharray="0" stroke="rgba(245, 34, 45, 1)" fill="none" class="stroke" />
  <path d="M 1250.5 204  A 3 3 0 0 0 1247.5 207 A 3 3 0 0 0 1250.5 210 A 3 3 0 0 0 1253.5 207 A 3 3 0 0 0 1250.5 204 Z " fill-rule="nonzero" fill="rgba(245, 34, 45, 1)" stroke="none" class="fill" />
</svg>