<?xml version="1.0" encoding="utf-8"?>
<svg version="1.1" xmlns:xlink="http://www.w3.org/1999/xlink" width="15px" height="15px" viewBox="240 158 15 15" xmlns="http://www.w3.org/2000/svg">
  <path d="M 247.5 158  C 251.7 158  255 161.3  255 165.5  C 255 169.7  251.7 173  247.5 173  C 243.3 173  240 169.7  240 165.5  C 240 161.3  243.3 158  247.5 158  Z " fill-rule="nonzero" fill="rgba(240, 240, 240, 1)" stroke="none" class="fill" />
  <path d="M 247.5 158.5  C 251.42 158.5  254.5 161.58  254.5 165.5  C 254.5 169.42  251.42 172.5  247.5 172.5  C 243.58 172.5  240.5 169.42  240.5 165.5  C 240.5 161.58  243.58 158.5  247.5 158.5  Z " stroke-width="1" stroke-dasharray="0" stroke="rgba(2, 167, 240, 1)" fill="none" class="stroke" stroke-dashoffset="0.5" />
  <path d="M 247.5 169.25  C 245.4 169.25  243.75 167.6  243.75 165.5  C 243.75 163.4  245.4 161.75  247.5 161.75  C 249.6 161.75  251.25 163.4  251.25 165.5  C 251.25 167.6  249.6 169.25  247.5 169.25  " fill-rule="nonzero" fill="rgba(2, 167, 240, 1)" stroke="none" class="stroke btn_check" />
</svg>