<?xml version="1.0" encoding="utf-8"?>
<svg version="1.1" xmlns:xlink="http://www.w3.org/1999/xlink" width="15px" height="15px" viewBox="259 161 15 15" xmlns="http://www.w3.org/2000/svg">
  <path d="M 266.5 161  C 270.7 161  274 164.3  274 168.5  C 274 172.7  270.7 176  266.5 176  C 262.3 176  259 172.7  259 168.5  C 259 164.3  262.3 161  266.5 161  Z " fill-rule="nonzero" fill="rgba(255, 255, 255, 1)" stroke="none" class="fill" />
  <path d="M 266.5 161.5  C 270.42 161.5  273.5 164.58  273.5 168.5  C 273.5 172.42  270.42 175.5  266.5 175.5  C 262.58 175.5  259.5 172.42  259.5 168.5  C 259.5 164.58  262.58 161.5  266.5 161.5  Z " stroke-width="1" stroke-dasharray="0" stroke="rgba(215, 215, 215, 1)" fill="none" class="stroke" stroke-dashoffset="0.5" />
  <path d="M 266.5 172.25  C 264.4 172.25  262.75 170.6  262.75 168.5  C 262.75 166.4  264.4 164.75  266.5 164.75  C 268.6 164.75  270.25 166.4  270.25 168.5  C 270.25 170.6  268.6 172.25  266.5 172.25  " fill-rule="nonzero" fill="rgba(215, 215, 215, 1)" stroke="none" class="stroke btn_check" />
</svg>