<?xml version="1.0" encoding="utf-8"?>
<svg version="1.1" xmlns:xlink="http://www.w3.org/1999/xlink" width="15px" height="15px" viewBox="1102 248 15 15" xmlns="http://www.w3.org/2000/svg">
  <path d="M 1109.5 248  C 1113.7 248  1117 251.3  1117 255.5  C 1117 259.7  1113.7 263  1109.5 263  C 1105.3 263  1102 259.7  1102 255.5  C 1102 251.3  1105.3 248  1109.5 248  Z " fill-rule="nonzero" fill="rgba(255, 255, 255, 1)" stroke="none" class="fill" />
  <path d="M 1109.5 248.5  C 1113.42 248.5  1116.5 251.58  1116.5 255.5  C 1116.5 259.42  1113.42 262.5  1109.5 262.5  C 1105.58 262.5  1102.5 259.42  1102.5 255.5  C 1102.5 251.58  1105.58 248.5  1109.5 248.5  Z " stroke-width="1" stroke-dasharray="0" stroke="rgba(2, 167, 240, 1)" fill="none" class="stroke" stroke-dashoffset="0.5" />
  <path d="M 1109.5 259.25  C 1107.4 259.25  1105.75 257.6  1105.75 255.5  C 1105.75 253.4  1107.4 251.75  1109.5 251.75  C 1111.6 251.75  1113.25 253.4  1113.25 255.5  C 1113.25 257.6  1111.6 259.25  1109.5 259.25  " fill-rule="nonzero" fill="rgba(2, 167, 240, 1)" stroke="none" class="stroke btn_check" />
</svg>