<?xml version="1.0" encoding="utf-8"?>
<svg version="1.1" xmlns:xlink="http://www.w3.org/1999/xlink" width="15px" height="15px" viewBox="1099 48 15 15" xmlns="http://www.w3.org/2000/svg">
  <path d="M 1106.5 48  C 1110.7 48  1114 51.3  1114 55.5  C 1114 59.7  1110.7 63  1106.5 63  C 1102.3 63  1099 59.7  1099 55.5  C 1099 51.3  1102.3 48  1106.5 48  Z " fill-rule="nonzero" fill="rgba(255, 255, 255, 1)" stroke="none" class="fill" />
  <path d="M 1106.5 48.5  C 1110.42 48.5  1113.5 51.58  1113.5 55.5  C 1113.5 59.42  1110.42 62.5  1106.5 62.5  C 1102.58 62.5  1099.5 59.42  1099.5 55.5  C 1099.5 51.58  1102.58 48.5  1106.5 48.5  Z " stroke-width="1" stroke-dasharray="0" stroke="rgba(215, 215, 215, 1)" fill="none" class="stroke" stroke-dashoffset="0.5" />
  <path d="M 1106.5 59.25  C 1104.4 59.25  1102.75 57.6  1102.75 55.5  C 1102.75 53.4  1104.4 51.75  1106.5 51.75  C 1108.6 51.75  1110.25 53.4  1110.25 55.5  C 1110.25 57.6  1108.6 59.25  1106.5 59.25  " fill-rule="nonzero" fill="rgba(215, 215, 215, 1)" stroke="none" class="stroke btn_check" />
</svg>