<?xml version="1.0" encoding="utf-8"?>
<svg version="1.1" xmlns:xlink="http://www.w3.org/1999/xlink" width="15px" height="15px" viewBox="751 586.5 15 15" xmlns="http://www.w3.org/2000/svg">
  <path d="M 758.5 586.5  C 762.7 586.5  766 589.8  766 594  C 766 598.2  762.7 601.5  758.5 601.5  C 754.3 601.5  751 598.2  751 594  C 751 589.8  754.3 586.5  758.5 586.5  Z " fill-rule="nonzero" fill="rgba(255, 255, 255, 1)" stroke="none" class="fill" />
  <path d="M 758.5 587  C 762.42 587  765.5 590.08  765.5 594  C 765.5 597.92  762.42 601  758.5 601  C 754.58 601  751.5 597.92  751.5 594  C 751.5 590.08  754.58 587  758.5 587  Z " stroke-width="1" stroke-dasharray="0" stroke="rgba(215, 215, 215, 1)" fill="none" class="stroke" stroke-dashoffset="0.5" />
  <path d="M 758.5 597.75  C 756.4 597.75  754.75 596.1  754.75 594  C 754.75 591.9  756.4 590.25  758.5 590.25  C 760.6 590.25  762.25 591.9  762.25 594  C 762.25 596.1  760.6 597.75  758.5 597.75  " fill-rule="nonzero" fill="rgba(215, 215, 215, 1)" stroke="none" class="stroke btn_check" />
</svg>