<?xml version="1.0" encoding="utf-8"?>
<svg version="1.1" xmlns:xlink="http://www.w3.org/1999/xlink" width="15px" height="15px" viewBox="1068 320 15 15" xmlns="http://www.w3.org/2000/svg">
  <path d="M 1075.5 320  C 1079.7 320  1083 323.3  1083 327.5  C 1083 331.7  1079.7 335  1075.5 335  C 1071.3 335  1068 331.7  1068 327.5  C 1068 323.3  1071.3 320  1075.5 320  Z " fill-rule="nonzero" fill="rgba(255, 255, 255, 1)" stroke="none" class="fill" />
  <path d="M 1075.5 320.5  C 1079.42 320.5  1082.5 323.58  1082.5 327.5  C 1082.5 331.42  1079.42 334.5  1075.5 334.5  C 1071.58 334.5  1068.5 331.42  1068.5 327.5  C 1068.5 323.58  1071.58 320.5  1075.5 320.5  Z " stroke-width="1" stroke-dasharray="0" stroke="rgba(215, 215, 215, 1)" fill="none" class="stroke" stroke-dashoffset="0.5" />
  <path d="M 1075.5 331.25  C 1073.4 331.25  1071.75 329.6  1071.75 327.5  C 1071.75 325.4  1073.4 323.75  1075.5 323.75  C 1077.6 323.75  1079.25 325.4  1079.25 327.5  C 1079.25 329.6  1077.6 331.25  1075.5 331.25  " fill-rule="nonzero" fill="rgba(215, 215, 215, 1)" stroke="none" class="stroke btn_check" />
</svg>