<?xml version="1.0" encoding="utf-8"?>
<svg version="1.1" xmlns:xlink="http://www.w3.org/1999/xlink" width="15px" height="15px" viewBox="634 236 15 15" xmlns="http://www.w3.org/2000/svg">
  <path d="M 641.5 236  C 645.7 236  649 239.3  649 243.5  C 649 247.7  645.7 251  641.5 251  C 637.3 251  634 247.7  634 243.5  C 634 239.3  637.3 236  641.5 236  Z " fill-rule="nonzero" fill="rgba(240, 240, 240, 1)" stroke="none" class="fill" />
  <path d="M 641.5 236.5  C 645.42 236.5  648.5 239.58  648.5 243.5  C 648.5 247.42  645.42 250.5  641.5 250.5  C 637.58 250.5  634.5 247.42  634.5 243.5  C 634.5 239.58  637.58 236.5  641.5 236.5  Z " stroke-width="1" stroke-dasharray="0" stroke="rgba(0, 114, 231, 1)" fill="none" class="stroke" stroke-dashoffset="0.5" />
  <path d="M 641.5 247.25  C 639.4 247.25  637.75 245.6  637.75 243.5  C 637.75 241.4  639.4 239.75  641.5 239.75  C 643.6 239.75  645.25 241.4  645.25 243.5  C 645.25 245.6  643.6 247.25  641.5 247.25  " fill-rule="nonzero" fill="rgba(0, 114, 231, 1)" stroke="none" class="stroke btn_check" />
</svg>