<?xml version="1.0" encoding="utf-8"?>
<svg version="1.1" xmlns:xlink="http://www.w3.org/1999/xlink" width="15px" height="15px" viewBox="1032 48 15 15" xmlns="http://www.w3.org/2000/svg">
  <path d="M 1039.5 48  C 1043.7 48  1047 51.3  1047 55.5  C 1047 59.7  1043.7 63  1039.5 63  C 1035.3 63  1032 59.7  1032 55.5  C 1032 51.3  1035.3 48  1039.5 48  Z " fill-rule="nonzero" fill="rgba(255, 255, 255, 1)" stroke="none" class="fill" />
  <path d="M 1039.5 48.5  C 1043.42 48.5  1046.5 51.58  1046.5 55.5  C 1046.5 59.42  1043.42 62.5  1039.5 62.5  C 1035.58 62.5  1032.5 59.42  1032.5 55.5  C 1032.5 51.58  1035.58 48.5  1039.5 48.5  Z " stroke-width="1" stroke-dasharray="0" stroke="rgba(215, 215, 215, 1)" fill="none" class="stroke" stroke-dashoffset="0.5" />
  <path d="M 1039.5 59.25  C 1037.4 59.25  1035.75 57.6  1035.75 55.5  C 1035.75 53.4  1037.4 51.75  1039.5 51.75  C 1041.6 51.75  1043.25 53.4  1043.25 55.5  C 1043.25 57.6  1041.6 59.25  1039.5 59.25  " fill-rule="nonzero" fill="rgba(215, 215, 215, 1)" stroke="none" class="stroke btn_check" />
</svg>