<?xml version="1.0" encoding="utf-8"?>
<svg version="1.1" xmlns:xlink="http://www.w3.org/1999/xlink" width="15px" height="15px" viewBox="1102 348 15 15" xmlns="http://www.w3.org/2000/svg">
  <path d="M 1109.5 348  C 1113.7 348  1117 351.3  1117 355.5  C 1117 359.7  1113.7 363  1109.5 363  C 1105.3 363  1102 359.7  1102 355.5  C 1102 351.3  1105.3 348  1109.5 348  Z " fill-rule="nonzero" fill="rgba(240, 240, 240, 1)" stroke="none" class="fill" />
  <path d="M 1109.5 348.5  C 1113.42 348.5  1116.5 351.58  1116.5 355.5  C 1116.5 359.42  1113.42 362.5  1109.5 362.5  C 1105.58 362.5  1102.5 359.42  1102.5 355.5  C 1102.5 351.58  1105.58 348.5  1109.5 348.5  Z " stroke-width="1" stroke-dasharray="0" stroke="rgba(2, 167, 240, 1)" fill="none" class="stroke" stroke-dashoffset="0.5" />
  <path d="M 1109.5 359.25  C 1107.4 359.25  1105.75 357.6  1105.75 355.5  C 1105.75 353.4  1107.4 351.75  1109.5 351.75  C 1111.6 351.75  1113.25 353.4  1113.25 355.5  C 1113.25 357.6  1111.6 359.25  1109.5 359.25  " fill-rule="nonzero" fill="rgba(2, 167, 240, 1)" stroke="none" class="stroke btn_check" />
</svg>