<?xml version="1.0" encoding="utf-8"?>
<svg version="1.1" xmlns:xlink="http://www.w3.org/1999/xlink" width="15px" height="15px" viewBox="248 736 15 15" xmlns="http://www.w3.org/2000/svg">
  <path d="M 255.5 736  C 259.7 736  263 739.3  263 743.5  C 263 747.7  259.7 751  255.5 751  C 251.3 751  248 747.7  248 743.5  C 248 739.3  251.3 736  255.5 736  Z " fill-rule="nonzero" fill="rgba(255, 255, 255, 1)" stroke="none" class="fill" />
  <path d="M 255.5 736.5  C 259.42 736.5  262.5 739.58  262.5 743.5  C 262.5 747.42  259.42 750.5  255.5 750.5  C 251.58 750.5  248.5 747.42  248.5 743.5  C 248.5 739.58  251.58 736.5  255.5 736.5  Z " stroke-width="1" stroke-dasharray="0" stroke="rgba(215, 215, 215, 1)" fill="none" class="stroke" stroke-dashoffset="0.5" />
  <path d="M 255.5 747.25  C 253.4 747.25  251.75 745.6  251.75 743.5  C 251.75 741.4  253.4 739.75  255.5 739.75  C 257.6 739.75  259.25 741.4  259.25 743.5  C 259.25 745.6  257.6 747.25  255.5 747.25  " fill-rule="nonzero" fill="rgba(215, 215, 215, 1)" stroke="none" class="stroke btn_check" />
</svg>