<?xml version="1.0" encoding="utf-8"?>
<svg version="1.1" xmlns:xlink="http://www.w3.org/1999/xlink" width="53px" height="63px" xmlns="http://www.w3.org/2000/svg">
  <defs>
    <pattern id="BGPattern" patternUnits="userSpaceOnUse" alignment="0 0" imageRepeat="None" />
    <mask fill="white" id="Clip8">
      <path d="M 39.88802083333333 2.3906250000000018  L 50.65364583333333 13.359374999999998  C 51.29774305555556 14.015624999999996  51.84982638888889 14.906250000000004  52.30989583333333 16.03125  C 52.76996527777778 17.156250000000004  53 18.1875  53 19.125000000000004  L 53 59.625  C 53 60.5625  52.677951388888886 61.35937499999999  52.03385416666667 62.015625  C 51.38975694444445 62.67187500000001  50.60763888888889 63  49.6875 63  L 3.3125 63  C 2.3923611111111116 63  1.6102430555555558 62.67187500000001  0.9661458333333334 62.015625  C 0.32204861111111105 61.35937499999999  0 60.5625  0 59.625  L 0 3.3750000000000018  C 0 2.4374999999999982  0.32204861111111105 1.6406249999999978  0.9661458333333334 0.984375  C 1.6102430555555558 0.32812500000000233  2.3923611111111116 0  3.3125 0  L 34.22916666666667 0  C 35.14930555555556 0  36.16145833333333 0.23437500000000266  37.265625 0.703125000000001  C 38.36979166666667 1.1718749999999993  39.243923611111114 1.7343749999999973  39.88802083333333 2.3906250000000018  Z M 36.748046875 5.554687500000003  C 36.47200520833333 5.273437499999997  36.000434027777786 5.015624999999993  35 4.781249999999997  L 35 18  L 48.30729166666667 18  C 48.07725694444445 17.320312499999993  47.82421875 16.839843749999996  47.54817708333333 16.558593749999996  L 36.748046875 5.554687500000003  Z M 5 58  L 48 58  L 48 23  L 34.22916666666667 23  C 33.30902777777778 22.499999999999996  32.52690972222222 22.171874999999993  31.8828125 21.515624999999996  C 31.23871527777778 20.859375  30.916666666666668 20.062499999999993  31 19.125000000000004  L 31 5  L 5 5  L 5 58  Z M 18.391276041666664 27  L 8.039713541666668 27  L 8.039713541666668 30.76171875  L 10.455078125 30.76171875  L 16.113932291666664 54.00000000000001  L 21.600260416666664 54.00000000000001  L 26.016927083333336 36.94921875  C 26.177951388888893 36.48046875  26.29296875 35.94140625  26.361979166666664 35.33203124999999  C 26.40798611111111 34.95703125  26.430989583333336 34.67578125  26.430989583333336 34.48828125  L 26.569010416666668 34.48828125  L 26.672526041666668 35.33203124999999  C 26.695529513888893 35.40234375  26.735785590277782 35.63671875  26.793294270833332 36.03515625000001  C 26.850802951388893 36.43359375  26.9140625 36.73828125  26.983072916666668 36.94921875  L 31.399739583333332 54.00000000000001  L 36.88606770833333 54.00000000000001  L 42.544921875 30.76171875  L 44.96028645833333 30.76171875  L 44.96028645833333 27  L 34.60872395833333 27  L 34.60872395833333 30.76171875  L 37.71419270833333 30.76171875  L 34.29817708333333 46.16015624999999  C 34.18315972222222 46.62890625  34.10264756944444 47.16796875000001  34.056640625 47.77734375  L 33.98763020833333 48.515625  L 33.849609375 48.515625  C 33.84960937500001 48.4453125  33.84385850694445 48.369140625  33.83235677083333 48.287109375  C 33.82085503472222 48.20507812500001  33.80360243055556 48.111328125  33.78059895833333 48.00585937499999  C 33.757595486111114 47.900390625  33.74609375000001 47.82421874999999  33.74609375 47.77734375  C 33.72309027777778 47.66015625000001  33.67708333333333 47.41406250000001  33.60807291666667 47.0390625  C 33.5390625 46.66406249999999  33.48155381944444 46.37109375000001  33.435546875 46.16015624999999  L 28.466796875 27.000000000000004  L 24.533203125 27.000000000000004  L 19.564453125 46.16015624999999  C 19.518446180555557 46.37109375000001  19.466688368055557 46.658203125  19.4091796875 47.02148437499999  C 19.351671006944446 47.384765625  19.311414930555557 47.63671874999999  19.288411458333336 47.77734375  L 19.150390625 48.515625  L 19.012369791666664 48.515625  L 18.943359375 47.77734375  C 18.897352430555557 47.16796875000001  18.81684027777778 46.62890625  18.701822916666664 46.16015624999999  L 15.285807291666666 30.76171875  L 18.391276041666664 30.76171875  L 18.391276041666664 27  Z " fill-rule="evenodd" />
    </mask>
  </defs>
  <g transform="matrix(1 0 0 1 -563 -352 )">
    <path d="M 39.88802083333333 2.3906250000000018  L 50.65364583333333 13.359374999999998  C 51.29774305555556 14.015624999999996  51.84982638888889 14.906250000000004  52.30989583333333 16.03125  C 52.76996527777778 17.156250000000004  53 18.1875  53 19.125000000000004  L 53 59.625  C 53 60.5625  52.677951388888886 61.35937499999999  52.03385416666667 62.015625  C 51.38975694444445 62.67187500000001  50.60763888888889 63  49.6875 63  L 3.3125 63  C 2.3923611111111116 63  1.6102430555555558 62.67187500000001  0.9661458333333334 62.015625  C 0.32204861111111105 61.35937499999999  0 60.5625  0 59.625  L 0 3.3750000000000018  C 0 2.4374999999999982  0.32204861111111105 1.6406249999999978  0.9661458333333334 0.984375  C 1.6102430555555558 0.32812500000000233  2.3923611111111116 0  3.3125 0  L 34.22916666666667 0  C 35.14930555555556 0  36.16145833333333 0.23437500000000266  37.265625 0.703125000000001  C 38.36979166666667 1.1718749999999993  39.243923611111114 1.7343749999999973  39.88802083333333 2.3906250000000018  Z M 36.748046875 5.554687500000003  C 36.47200520833333 5.273437499999997  36.000434027777786 5.015624999999993  35 4.781249999999997  L 35 18  L 48.30729166666667 18  C 48.07725694444445 17.320312499999993  47.82421875 16.839843749999996  47.54817708333333 16.558593749999996  L 36.748046875 5.554687500000003  Z M 5 58  L 48 58  L 48 23  L 34.22916666666667 23  C 33.30902777777778 22.499999999999996  32.52690972222222 22.171874999999993  31.8828125 21.515624999999996  C 31.23871527777778 20.859375  30.916666666666668 20.062499999999993  31 19.125000000000004  L 31 5  L 5 5  L 5 58  Z M 18.391276041666664 27  L 8.039713541666668 27  L 8.039713541666668 30.76171875  L 10.455078125 30.76171875  L 16.113932291666664 54.00000000000001  L 21.600260416666664 54.00000000000001  L 26.016927083333336 36.94921875  C 26.177951388888893 36.48046875  26.29296875 35.94140625  26.361979166666664 35.33203124999999  C 26.40798611111111 34.95703125  26.430989583333336 34.67578125  26.430989583333336 34.48828125  L 26.569010416666668 34.48828125  L 26.672526041666668 35.33203124999999  C 26.695529513888893 35.40234375  26.735785590277782 35.63671875  26.793294270833332 36.03515625000001  C 26.850802951388893 36.43359375  26.9140625 36.73828125  26.983072916666668 36.94921875  L 31.399739583333332 54.00000000000001  L 36.88606770833333 54.00000000000001  L 42.544921875 30.76171875  L 44.96028645833333 30.76171875  L 44.96028645833333 27  L 34.60872395833333 27  L 34.60872395833333 30.76171875  L 37.71419270833333 30.76171875  L 34.29817708333333 46.16015624999999  C 34.18315972222222 46.62890625  34.10264756944444 47.16796875000001  34.056640625 47.77734375  L 33.98763020833333 48.515625  L 33.849609375 48.515625  C 33.84960937500001 48.4453125  33.84385850694445 48.369140625  33.83235677083333 48.287109375  C 33.82085503472222 48.20507812500001  33.80360243055556 48.111328125  33.78059895833333 48.00585937499999  C 33.757595486111114 47.900390625  33.74609375000001 47.82421874999999  33.74609375 47.77734375  C 33.72309027777778 47.66015625000001  33.67708333333333 47.41406250000001  33.60807291666667 47.0390625  C 33.5390625 46.66406249999999  33.48155381944444 46.37109375000001  33.435546875 46.16015624999999  L 28.466796875 27.000000000000004  L 24.533203125 27.000000000000004  L 19.564453125 46.16015624999999  C 19.518446180555557 46.37109375000001  19.466688368055557 46.658203125  19.4091796875 47.02148437499999  C 19.351671006944446 47.384765625  19.311414930555557 47.63671874999999  19.288411458333336 47.77734375  L 19.150390625 48.515625  L 19.012369791666664 48.515625  L 18.943359375 47.77734375  C 18.897352430555557 47.16796875000001  18.81684027777778 46.62890625  18.701822916666664 46.16015624999999  L 15.285807291666666 30.76171875  L 18.391276041666664 30.76171875  L 18.391276041666664 27  Z " fill-rule="nonzero" fill="rgba(242, 242, 242, 1)" stroke="none" transform="matrix(1 0 0 1 563 352 )" class="fill" />
    <path d="M 39.88802083333333 2.3906250000000018  L 50.65364583333333 13.359374999999998  C 51.29774305555556 14.015624999999996  51.84982638888889 14.906250000000004  52.30989583333333 16.03125  C 52.76996527777778 17.156250000000004  53 18.1875  53 19.125000000000004  L 53 59.625  C 53 60.5625  52.677951388888886 61.35937499999999  52.03385416666667 62.015625  C 51.38975694444445 62.67187500000001  50.60763888888889 63  49.6875 63  L 3.3125 63  C 2.3923611111111116 63  1.6102430555555558 62.67187500000001  0.9661458333333334 62.015625  C 0.32204861111111105 61.35937499999999  0 60.5625  0 59.625  L 0 3.3750000000000018  C 0 2.4374999999999982  0.32204861111111105 1.6406249999999978  0.9661458333333334 0.984375  C 1.6102430555555558 0.32812500000000233  2.3923611111111116 0  3.3125 0  L 34.22916666666667 0  C 35.14930555555556 0  36.16145833333333 0.23437500000000266  37.265625 0.703125000000001  C 38.36979166666667 1.1718749999999993  39.243923611111114 1.7343749999999973  39.88802083333333 2.3906250000000018  Z " stroke-width="0" stroke-dasharray="0" stroke="rgba(255, 255, 255, 0)" fill="none" transform="matrix(1 0 0 1 563 352 )" class="stroke" mask="url(#Clip8)" />
    <path d="M 36.748046875 5.554687500000003  C 36.47200520833333 5.273437499999997  36.000434027777786 5.015624999999993  35 4.781249999999997  L 35 18  L 48.30729166666667 18  C 48.07725694444445 17.320312499999993  47.82421875 16.839843749999996  47.54817708333333 16.558593749999996  L 36.748046875 5.554687500000003  Z " stroke-width="0" stroke-dasharray="0" stroke="rgba(255, 255, 255, 0)" fill="none" transform="matrix(1 0 0 1 563 352 )" class="stroke" mask="url(#Clip8)" />
    <path d="M 5 58  L 48 58  L 48 23  L 34.22916666666667 23  C 33.30902777777778 22.499999999999996  32.52690972222222 22.171874999999993  31.8828125 21.515624999999996  C 31.23871527777778 20.859375  30.916666666666668 20.062499999999993  31 19.125000000000004  L 31 5  L 5 5  L 5 58  Z " stroke-width="0" stroke-dasharray="0" stroke="rgba(255, 255, 255, 0)" fill="none" transform="matrix(1 0 0 1 563 352 )" class="stroke" mask="url(#Clip8)" />
    <path d="M 18.391276041666664 27  L 8.039713541666668 27  L 8.039713541666668 30.76171875  L 10.455078125 30.76171875  L 16.113932291666664 54.00000000000001  L 21.600260416666664 54.00000000000001  L 26.016927083333336 36.94921875  C 26.177951388888893 36.48046875  26.29296875 35.94140625  26.361979166666664 35.33203124999999  C 26.40798611111111 34.95703125  26.430989583333336 34.67578125  26.430989583333336 34.48828125  L 26.569010416666668 34.48828125  L 26.672526041666668 35.33203124999999  C 26.695529513888893 35.40234375  26.735785590277782 35.63671875  26.793294270833332 36.03515625000001  C 26.850802951388893 36.43359375  26.9140625 36.73828125  26.983072916666668 36.94921875  L 31.399739583333332 54.00000000000001  L 36.88606770833333 54.00000000000001  L 42.544921875 30.76171875  L 44.96028645833333 30.76171875  L 44.96028645833333 27  L 34.60872395833333 27  L 34.60872395833333 30.76171875  L 37.71419270833333 30.76171875  L 34.29817708333333 46.16015624999999  C 34.18315972222222 46.62890625  34.10264756944444 47.16796875000001  34.056640625 47.77734375  L 33.98763020833333 48.515625  L 33.849609375 48.515625  C 33.84960937500001 48.4453125  33.84385850694445 48.369140625  33.83235677083333 48.287109375  C 33.82085503472222 48.20507812500001  33.80360243055556 48.111328125  33.78059895833333 48.00585937499999  C 33.757595486111114 47.900390625  33.74609375000001 47.82421874999999  33.74609375 47.77734375  C 33.72309027777778 47.66015625000001  33.67708333333333 47.41406250000001  33.60807291666667 47.0390625  C 33.5390625 46.66406249999999  33.48155381944444 46.37109375000001  33.435546875 46.16015624999999  L 28.466796875 27.000000000000004  L 24.533203125 27.000000000000004  L 19.564453125 46.16015624999999  C 19.518446180555557 46.37109375000001  19.466688368055557 46.658203125  19.4091796875 47.02148437499999  C 19.351671006944446 47.384765625  19.311414930555557 47.63671874999999  19.288411458333336 47.77734375  L 19.150390625 48.515625  L 19.012369791666664 48.515625  L 18.943359375 47.77734375  C 18.897352430555557 47.16796875000001  18.81684027777778 46.62890625  18.701822916666664 46.16015624999999  L 15.285807291666666 30.76171875  L 18.391276041666664 30.76171875  L 18.391276041666664 27  Z " stroke-width="0" stroke-dasharray="0" stroke="rgba(255, 255, 255, 0)" fill="none" transform="matrix(1 0 0 1 563 352 )" class="stroke" mask="url(#Clip8)" />
  </g>
</svg>