<?xml version="1.0" encoding="utf-8"?>
<svg version="1.1" xmlns:xlink="http://www.w3.org/1999/xlink" width="15px" height="15px" viewBox="430 125 15 15" xmlns="http://www.w3.org/2000/svg">
  <path d="M 437.5 125  C 441.7 125  445 128.3  445 132.5  C 445 136.7  441.7 140  437.5 140  C 433.3 140  430 136.7  430 132.5  C 430 128.3  433.3 125  437.5 125  Z " fill-rule="nonzero" fill="rgba(240, 240, 240, 1)" stroke="none" class="fill" />
  <path d="M 437.5 125.5  C 441.42 125.5  444.5 128.58  444.5 132.5  C 444.5 136.42  441.42 139.5  437.5 139.5  C 433.58 139.5  430.5 136.42  430.5 132.5  C 430.5 128.58  433.58 125.5  437.5 125.5  Z " stroke-width="1" stroke-dasharray="0" stroke="rgba(2, 167, 240, 1)" fill="none" class="stroke" stroke-dashoffset="0.5" />
  <path d="M 437.5 136.25  C 435.4 136.25  433.75 134.6  433.75 132.5  C 433.75 130.4  435.4 128.75  437.5 128.75  C 439.6 128.75  441.25 130.4  441.25 132.5  C 441.25 134.6  439.6 136.25  437.5 136.25  " fill-rule="nonzero" fill="rgba(2, 167, 240, 1)" stroke="none" class="stroke btn_check" />
</svg>