<?xml version="1.0" standalone="no"?><!DOCTYPE svg PUBLIC "-//W3C//DTD SVG 1.1//EN" "http://www.w3.org/Graphics/SVG/1.1/DTD/svg11.dtd"><svg t="1740140936151" class="icon" viewBox="0 0 1024 1024" version="1.1" xmlns="http://www.w3.org/2000/svg" p-id="1506" xmlns:xlink="http://www.w3.org/1999/xlink" width="200" height="200"><path d="M702.383 9.267a233.298 233.298 0 1 0 233.36 233.174A233.36 233.36 0 0 0 702.383 9.267z m133.846 172.906L685.28 333.061a21.147 21.147 0 0 1-29.854 0.498l-0.436-0.498-87.075-87.075a21.458 21.458 0 0 1 29.482-31.098l0.87 0.871 71.961 71.961L806.313 152.32a21.458 21.458 0 0 1 30.6 30.04zM4.271 4.31l0.043-0.043q10.38-10.38 20.759 0l994.638 994.639q10.38 10.379 0 20.758l-0.044 0.044q-10.379 10.38-20.758 0L4.27 25.069q-10.379-10.379 0-20.758zM246.235 465.664A233.236 233.236 0 1 0 479.534 698.9a233.858 233.858 0 0 0-233.299-233.236m97.213 303.331a19.28 19.28 0 0 1-27.242 27.242l-69.97-70.157-69.972 70.033a19.28 19.28 0 0 1-27.428-27.118l70.22-69.97-70.22-70.158a19.244 19.244 0 0 1 27.242-27.18l70.157 69.97 69.971-69.97a19.244 19.244 0 0 1 27.242 27.18l-70.22 70.033z" p-id="1507" fill="#0072E7"></path></svg>