<?xml version="1.0" encoding="utf-8"?>
<svg version="1.1" xmlns:xlink="http://www.w3.org/1999/xlink" width="10px" height="38px" preserveAspectRatio="xMidYMin meet" viewBox="16 287 8 38" xmlns="http://www.w3.org/2000/svg">
  <path d="M 118.37564968684258 323.5103841629819  A 4 4 0 0 0 114.5 320.5 L 25 320.5  A 5 5 0 0 1 20.5 315.5 L 20.5 297  A 5 5 0 0 1 25.5 292.5 L 39 292.5  " stroke-width="1" stroke-dasharray="0" stroke="rgba(255, 51, 153, 1)" fill="none" class="stroke" />
  <path d="M 117.42675547549528 318.77344495990667  A 3 3 0 0 0 114.42675547549528 321.77344495990667 A 3 3 0 0 0 117.42675547549528 324.77344495990667 A 3 3 0 0 0 120.42675547549528 321.77344495990667 A 3 3 0 0 0 117.42675547549528 318.77344495990667 Z " fill-rule="nonzero" fill="rgba(255, 51, 153, 1)" stroke="none" class="fill" />
</svg>