<?xml version="1.0" encoding="utf-8"?>
<svg version="1.1" xmlns:xlink="http://www.w3.org/1999/xlink" width="53px" height="42px" xmlns="http://www.w3.org/2000/svg">
  <defs>
    <pattern id="BGPattern" patternUnits="userSpaceOnUse" alignment="0 0" imageRepeat="None" />
    <mask fill="white" id="Clip9">
      <path d="M 24.71748878923767 31.5  L 26.381165919282513 31.5  L 29.827354260089685 28.039772727272727  L 25.31165919282511 23.505681818181813  L 21.86547085201794 26.965909090909093  L 21.86547085201794 28.63636363636364  L 24.71748878923767 28.63636363636364  L 24.71748878923767 31.5  Z M 39.4232062780269 11.007102272727273  C 39.759902840059794 10.669034090909086  39.76980568011958 10.340909090909086  39.45291479820628 10.022727272727273  C 39.13602391629298 9.70454545454545  38.80923019431988 9.714488636363633  38.472533632286996 10.05255681818182  L 28.074551569506728 20.492897727272727  C 27.73785500747384 20.83096590909091  27.72795216741405 21.159090909090903  28.04484304932735 21.477272727272727  C 28.36173393124066 21.795454545454543  28.688527653213754 21.78551136363636  29.025224215246638 21.447443181818187  L 39.4232062780269 11.007102272727273  Z M 41.23542600896861 26.876420454545453  C 41.631539611360246 27.03551136363636  41.82959641255605 27.32386363636364  41.82959641255605 27.741477272727273  L 41.82959641255605 33.40909090909091  C 41.82959641255605 35.77556818181818  40.99280642750374 37.79900568181819  39.319226457399104 39.47940340909091  C 37.64564648729447 41.15980113636363  35.630418535127056 42  33.27354260089686 42  L 8.556053811659192 42  C 6.199177877428999 42  4.183949925261585 41.15980113636363  2.5103699551569507 39.47940340909091  C 0.8367899850523168 37.79900568181819  0 35.77556818181818  0 33.40909090909091  L 0 8.590909090909093  C 0 6.224431818181813  0.8367899850523168 4.200994318181817  2.5103699551569507 2.5205965909090926  C 4.183949925261585 0.8401988636363595  6.199177877428999 0  8.556053811659192 0  L 33.27354260089686 0  C 34.521300448430495 0  35.67993273542601 0.2485795454545432  36.74943946188341 0.7457386363636342  C 37.04652466367713 0.884943181818179  37.22477578475336 1.1136363636363626  37.28419282511211 1.4318181818181805  C 37.34360986547085 1.7698863636363626  37.25448430493273 2.058238636363634  37.016816143497756 2.296875  L 35.561098654708516 3.7585227272727266  C 35.28381913303438 4.036931818181817  34.966928251121075 4.116477272727273  34.61042600896861 3.9971590909090926  C 34.154895366218234 3.8778409090909074  33.70926756352765 3.8181818181818192  33.27354260089686 4  L 8.556053811659192 4  C 7.248878923766816 3.8181818181818192  6.129857997010465 4.28551136363636  5.198991031390134 5.220170454545453  C 4.268124065769807 6.154829545454543  3.802690582959641 7.278409090909093  4 8.590909090909093  L 4 33.40909090909091  C 3.802690582959641 34.72159090909091  4.268124065769807 35.845170454545446  5.198991031390134 36.77982954545455  C 6.129857997010465 37.71448863636363  7.248878923766816 38.18181818181818  8.556053811659192 38  L 33.27354260089686 38  C 34.58071748878924 38.18181818181818  35.69973841554559 37.71448863636363  36.63060538116592 36.77982954545455  C 37.56147234678625 35.845170454545446  38.02690582959641 34.72159090909091  38.02690582959641 33.40909090909091  L 38.02690582959641 29.650568181818187  C 38.02690582959641 29.39204545454545  38.11603139013453 29.173295454545453  38.29428251121076 28.994318181818187  L 40.19562780269058 27.085227272727273  C 40.4927130044843 26.786931818181813  40.83931240657699 26.717329545454543  41.23542600896861 26.876420454545453  Z M 19.013452914798204 25.772727272727273  L 38.97757847533632 5.727272727272727  L 47.53363228699552 14.31818181818182  L 27.569506726457398 34.36363636363636  L 19.013452914798204 34.36363636363636  L 19.013452914798204 25.772727272727273  Z M 53 7.636363636363634  C 53 8.43181818181818  52.72272047832586 9.107954545454543  52.16816143497758 9.664772727272727  L 49.43497757847534 12.409090909090907  L 40.87892376681614 3.8181818181818192  L 43.61210762331839 1.0738636363636342  C 44.16666666666667 0.5170454545454506  44.84005979073244 0.23863636363636576  45.6322869955157 0.23863636363636576  C 46.42451420029896 0.23863636363636576  47.097907324364726 0.5170454545454506  47.652466367713004 1.0738636363636342  L 52.16816143497758 5.607954545454547  C 52.72272047832586 6.16477272727272  53 6.84090909090909  53 7.636363636363634  Z " fill-rule="evenodd" />
    </mask>
  </defs>
  <g transform="matrix(1 0 0 1 -563 -262 )">
    <path d="M 24.71748878923767 31.5  L 26.381165919282513 31.5  L 29.827354260089685 28.039772727272727  L 25.31165919282511 23.505681818181813  L 21.86547085201794 26.965909090909093  L 21.86547085201794 28.63636363636364  L 24.71748878923767 28.63636363636364  L 24.71748878923767 31.5  Z M 39.4232062780269 11.007102272727273  C 39.759902840059794 10.669034090909086  39.76980568011958 10.340909090909086  39.45291479820628 10.022727272727273  C 39.13602391629298 9.70454545454545  38.80923019431988 9.714488636363633  38.472533632286996 10.05255681818182  L 28.074551569506728 20.492897727272727  C 27.73785500747384 20.83096590909091  27.72795216741405 21.159090909090903  28.04484304932735 21.477272727272727  C 28.36173393124066 21.795454545454543  28.688527653213754 21.78551136363636  29.025224215246638 21.447443181818187  L 39.4232062780269 11.007102272727273  Z M 41.23542600896861 26.876420454545453  C 41.631539611360246 27.03551136363636  41.82959641255605 27.32386363636364  41.82959641255605 27.741477272727273  L 41.82959641255605 33.40909090909091  C 41.82959641255605 35.77556818181818  40.99280642750374 37.79900568181819  39.319226457399104 39.47940340909091  C 37.64564648729447 41.15980113636363  35.630418535127056 42  33.27354260089686 42  L 8.556053811659192 42  C 6.199177877428999 42  4.183949925261585 41.15980113636363  2.5103699551569507 39.47940340909091  C 0.8367899850523168 37.79900568181819  0 35.77556818181818  0 33.40909090909091  L 0 8.590909090909093  C 0 6.224431818181813  0.8367899850523168 4.200994318181817  2.5103699551569507 2.5205965909090926  C 4.183949925261585 0.8401988636363595  6.199177877428999 0  8.556053811659192 0  L 33.27354260089686 0  C 34.521300448430495 0  35.67993273542601 0.2485795454545432  36.74943946188341 0.7457386363636342  C 37.04652466367713 0.884943181818179  37.22477578475336 1.1136363636363626  37.28419282511211 1.4318181818181805  C 37.34360986547085 1.7698863636363626  37.25448430493273 2.058238636363634  37.016816143497756 2.296875  L 35.561098654708516 3.7585227272727266  C 35.28381913303438 4.036931818181817  34.966928251121075 4.116477272727273  34.61042600896861 3.9971590909090926  C 34.154895366218234 3.8778409090909074  33.70926756352765 3.8181818181818192  33.27354260089686 4  L 8.556053811659192 4  C 7.248878923766816 3.8181818181818192  6.129857997010465 4.28551136363636  5.198991031390134 5.220170454545453  C 4.268124065769807 6.154829545454543  3.802690582959641 7.278409090909093  4 8.590909090909093  L 4 33.40909090909091  C 3.802690582959641 34.72159090909091  4.268124065769807 35.845170454545446  5.198991031390134 36.77982954545455  C 6.129857997010465 37.71448863636363  7.248878923766816 38.18181818181818  8.556053811659192 38  L 33.27354260089686 38  C 34.58071748878924 38.18181818181818  35.69973841554559 37.71448863636363  36.63060538116592 36.77982954545455  C 37.56147234678625 35.845170454545446  38.02690582959641 34.72159090909091  38.02690582959641 33.40909090909091  L 38.02690582959641 29.650568181818187  C 38.02690582959641 29.39204545454545  38.11603139013453 29.173295454545453  38.29428251121076 28.994318181818187  L 40.19562780269058 27.085227272727273  C 40.4927130044843 26.786931818181813  40.83931240657699 26.717329545454543  41.23542600896861 26.876420454545453  Z M 19.013452914798204 25.772727272727273  L 38.97757847533632 5.727272727272727  L 47.53363228699552 14.31818181818182  L 27.569506726457398 34.36363636363636  L 19.013452914798204 34.36363636363636  L 19.013452914798204 25.772727272727273  Z M 53 7.636363636363634  C 53 8.43181818181818  52.72272047832586 9.107954545454543  52.16816143497758 9.664772727272727  L 49.43497757847534 12.409090909090907  L 40.87892376681614 3.8181818181818192  L 43.61210762331839 1.0738636363636342  C 44.16666666666667 0.5170454545454506  44.84005979073244 0.23863636363636576  45.6322869955157 0.23863636363636576  C 46.42451420029896 0.23863636363636576  47.097907324364726 0.5170454545454506  47.652466367713004 1.0738636363636342  L 52.16816143497758 5.607954545454547  C 52.72272047832586 6.16477272727272  53 6.84090909090909  53 7.636363636363634  Z " fill-rule="nonzero" fill="rgba(242, 242, 242, 1)" stroke="none" transform="matrix(1 0 0 1 563 262 )" class="fill" />
    <path d="M 24.71748878923767 31.5  L 26.381165919282513 31.5  L 29.827354260089685 28.039772727272727  L 25.31165919282511 23.505681818181813  L 21.86547085201794 26.965909090909093  L 21.86547085201794 28.63636363636364  L 24.71748878923767 28.63636363636364  L 24.71748878923767 31.5  Z " stroke-width="0" stroke-dasharray="0" stroke="rgba(255, 255, 255, 0)" fill="none" transform="matrix(1 0 0 1 563 262 )" class="stroke" mask="url(#Clip9)" />
    <path d="M 39.4232062780269 11.007102272727273  C 39.759902840059794 10.669034090909086  39.76980568011958 10.340909090909086  39.45291479820628 10.022727272727273  C 39.13602391629298 9.70454545454545  38.80923019431988 9.714488636363633  38.472533632286996 10.05255681818182  L 28.074551569506728 20.492897727272727  C 27.73785500747384 20.83096590909091  27.72795216741405 21.159090909090903  28.04484304932735 21.477272727272727  C 28.36173393124066 21.795454545454543  28.688527653213754 21.78551136363636  29.025224215246638 21.447443181818187  L 39.4232062780269 11.007102272727273  Z " stroke-width="0" stroke-dasharray="0" stroke="rgba(255, 255, 255, 0)" fill="none" transform="matrix(1 0 0 1 563 262 )" class="stroke" mask="url(#Clip9)" />
    <path d="M 41.23542600896861 26.876420454545453  C 41.631539611360246 27.03551136363636  41.82959641255605 27.32386363636364  41.82959641255605 27.741477272727273  L 41.82959641255605 33.40909090909091  C 41.82959641255605 35.77556818181818  40.99280642750374 37.79900568181819  39.319226457399104 39.47940340909091  C 37.64564648729447 41.15980113636363  35.630418535127056 42  33.27354260089686 42  L 8.556053811659192 42  C 6.199177877428999 42  4.183949925261585 41.15980113636363  2.5103699551569507 39.47940340909091  C 0.8367899850523168 37.79900568181819  0 35.77556818181818  0 33.40909090909091  L 0 8.590909090909093  C 0 6.224431818181813  0.8367899850523168 4.200994318181817  2.5103699551569507 2.5205965909090926  C 4.183949925261585 0.8401988636363595  6.199177877428999 0  8.556053811659192 0  L 33.27354260089686 0  C 34.521300448430495 0  35.67993273542601 0.2485795454545432  36.74943946188341 0.7457386363636342  C 37.04652466367713 0.884943181818179  37.22477578475336 1.1136363636363626  37.28419282511211 1.4318181818181805  C 37.34360986547085 1.7698863636363626  37.25448430493273 2.058238636363634  37.016816143497756 2.296875  L 35.561098654708516 3.7585227272727266  C 35.28381913303438 4.036931818181817  34.966928251121075 4.116477272727273  34.61042600896861 3.9971590909090926  C 34.154895366218234 3.8778409090909074  33.70926756352765 3.8181818181818192  33.27354260089686 4  L 8.556053811659192 4  C 7.248878923766816 3.8181818181818192  6.129857997010465 4.28551136363636  5.198991031390134 5.220170454545453  C 4.268124065769807 6.154829545454543  3.802690582959641 7.278409090909093  4 8.590909090909093  L 4 33.40909090909091  C 3.802690582959641 34.72159090909091  4.268124065769807 35.845170454545446  5.198991031390134 36.77982954545455  C 6.129857997010465 37.71448863636363  7.248878923766816 38.18181818181818  8.556053811659192 38  L 33.27354260089686 38  C 34.58071748878924 38.18181818181818  35.69973841554559 37.71448863636363  36.63060538116592 36.77982954545455  C 37.56147234678625 35.845170454545446  38.02690582959641 34.72159090909091  38.02690582959641 33.40909090909091  L 38.02690582959641 29.650568181818187  C 38.02690582959641 29.39204545454545  38.11603139013453 29.173295454545453  38.29428251121076 28.994318181818187  L 40.19562780269058 27.085227272727273  C 40.4927130044843 26.786931818181813  40.83931240657699 26.717329545454543  41.23542600896861 26.876420454545453  Z " stroke-width="0" stroke-dasharray="0" stroke="rgba(255, 255, 255, 0)" fill="none" transform="matrix(1 0 0 1 563 262 )" class="stroke" mask="url(#Clip9)" />
    <path d="M 19.013452914798204 25.772727272727273  L 38.97757847533632 5.727272727272727  L 47.53363228699552 14.31818181818182  L 27.569506726457398 34.36363636363636  L 19.013452914798204 34.36363636363636  L 19.013452914798204 25.772727272727273  Z " stroke-width="0" stroke-dasharray="0" stroke="rgba(255, 255, 255, 0)" fill="none" transform="matrix(1 0 0 1 563 262 )" class="stroke" mask="url(#Clip9)" />
    <path d="M 53 7.636363636363634  C 53 8.43181818181818  52.72272047832586 9.107954545454543  52.16816143497758 9.664772727272727  L 49.43497757847534 12.409090909090907  L 40.87892376681614 3.8181818181818192  L 43.61210762331839 1.0738636363636342  C 44.16666666666667 0.5170454545454506  44.84005979073244 0.23863636363636576  45.6322869955157 0.23863636363636576  C 46.42451420029896 0.23863636363636576  47.097907324364726 0.5170454545454506  47.652466367713004 1.0738636363636342  L 52.16816143497758 5.607954545454547  C 52.72272047832586 6.16477272727272  53 6.84090909090909  53 7.636363636363634  Z " stroke-width="0" stroke-dasharray="0" stroke="rgba(255, 255, 255, 0)" fill="none" transform="matrix(1 0 0 1 563 262 )" class="stroke" mask="url(#Clip9)" />
  </g>
</svg>