<?xml version="1.0" encoding="utf-8"?>
<svg version="1.1" xmlns:xlink="http://www.w3.org/1999/xlink" width="15px" height="15px" viewBox="724 236 15 15" xmlns="http://www.w3.org/2000/svg">
  <path d="M 731.5 236  C 735.7 236  739 239.3  739 243.5  C 739 247.7  735.7 251  731.5 251  C 727.3 251  724 247.7  724 243.5  C 724 239.3  727.3 236  731.5 236  Z " fill-rule="nonzero" fill="rgba(255, 255, 255, 1)" stroke="none" class="fill" />
  <path d="M 731.5 236.5  C 735.42 236.5  738.5 239.58  738.5 243.5  C 738.5 247.42  735.42 250.5  731.5 250.5  C 727.58 250.5  724.5 247.42  724.5 243.5  C 724.5 239.58  727.58 236.5  731.5 236.5  Z " stroke-width="1" stroke-dasharray="0" stroke="rgba(215, 215, 215, 1)" fill="none" class="stroke" stroke-dashoffset="0.5" />
  <path d="M 731.5 247.25  C 729.4 247.25  727.75 245.6  727.75 243.5  C 727.75 241.4  729.4 239.75  731.5 239.75  C 733.6 239.75  735.25 241.4  735.25 243.5  C 735.25 245.6  733.6 247.25  731.5 247.25  " fill-rule="nonzero" fill="rgba(215, 215, 215, 1)" stroke="none" class="stroke btn_check" />
</svg>