<?xml version="1.0" encoding="utf-8"?>
<svg version="1.1" xmlns:xlink="http://www.w3.org/1999/xlink" width="9px" height="5px" xmlns="http://www.w3.org/2000/svg">
  <defs>
    <pattern id="BGPattern" patternUnits="userSpaceOnUse" alignment="0 0" imageRepeat="None" />
    <mask fill="white" id="Clip2">
      <path d="M 8.909819639278558 0.515463917525773  C 8.969939879759519 0.5727376861397465  9 0.6386025200458184  9 0.7130584192439865  C 9 0.7875143184421529  8.969939879759519 0.8533791523482237  8.909819639278558 0.9106529209621994  L 4.707414829659318 4.914089347079037  C 4.647294589178357 4.971363115693011  4.578156312625251 5  4.5 5  C 4.42184368737475 5  4.352705410821644 4.971363115693011  4.292585170340681 4.914089347079037  L 0.09018036072144288 0.9106529209621994  C 0.030060120240481047 0.8533791523482237  0 0.7875143184421529  0 0.7130584192439865  C 0 0.6386025200458184  0.030060120240481047 0.5727376861397465  0.09018036072144288 0.515463917525773  L 0.5410821643286573 0.08591065292096245  C 0.6012024048096194 0.028636884306986743  0.6703406813627255 0  0.748496993987976 0  C 0.8266533066132267 0  0.8957915831663328 0.028636884306986743  0.9559118236472945 0.08591065292096245  L 4.5 3.4621993127147768  L 8.044088176352705 0.08591065292096245  C 8.104208416833668 0.028636884306986743  8.173346693386774 0  8.251503006012024 0  C 8.329659318637276 0  8.398797595190382 0.028636884306986743  8.458917835671343 0.08591065292096245  L 8.909819639278558 0.515463917525773  Z " fill-rule="evenodd" />
    </mask>
  </defs>
  <g transform="matrix(1 0 0 1 -1139 -104 )">
    <path d="M 8.909819639278558 0.515463917525773  C 8.969939879759519 0.5727376861397465  9 0.6386025200458184  9 0.7130584192439865  C 9 0.7875143184421529  8.969939879759519 0.8533791523482237  8.909819639278558 0.9106529209621994  L 4.707414829659318 4.914089347079037  C 4.647294589178357 4.971363115693011  4.578156312625251 5  4.5 5  C 4.42184368737475 5  4.352705410821644 4.971363115693011  4.292585170340681 4.914089347079037  L 0.09018036072144288 0.9106529209621994  C 0.030060120240481047 0.8533791523482237  0 0.7875143184421529  0 0.7130584192439865  C 0 0.6386025200458184  0.030060120240481047 0.5727376861397465  0.09018036072144288 0.515463917525773  L 0.5410821643286573 0.08591065292096245  C 0.6012024048096194 0.028636884306986743  0.6703406813627255 0  0.748496993987976 0  C 0.8266533066132267 0  0.8957915831663328 0.028636884306986743  0.9559118236472945 0.08591065292096245  L 4.5 3.4621993127147768  L 8.044088176352705 0.08591065292096245  C 8.104208416833668 0.028636884306986743  8.173346693386774 0  8.251503006012024 0  C 8.329659318637276 0  8.398797595190382 0.028636884306986743  8.458917835671343 0.08591065292096245  L 8.909819639278558 0.515463917525773  Z " fill-rule="nonzero" fill="rgba(85, 85, 85, 1)" stroke="none" transform="matrix(1 0 0 1 1139 104 )" class="fill" />
    <path d="M 8.909819639278558 0.515463917525773  C 8.969939879759519 0.5727376861397465  9 0.6386025200458184  9 0.7130584192439865  C 9 0.7875143184421529  8.969939879759519 0.8533791523482237  8.909819639278558 0.9106529209621994  L 4.707414829659318 4.914089347079037  C 4.647294589178357 4.971363115693011  4.578156312625251 5  4.5 5  C 4.42184368737475 5  4.352705410821644 4.971363115693011  4.292585170340681 4.914089347079037  L 0.09018036072144288 0.9106529209621994  C 0.030060120240481047 0.8533791523482237  0 0.7875143184421529  0 0.7130584192439865  C 0 0.6386025200458184  0.030060120240481047 0.5727376861397465  0.09018036072144288 0.515463917525773  L 0.5410821643286573 0.08591065292096245  C 0.6012024048096194 0.028636884306986743  0.6703406813627255 0  0.748496993987976 0  C 0.8266533066132267 0  0.8957915831663328 0.028636884306986743  0.9559118236472945 0.08591065292096245  L 4.5 3.4621993127147768  L 8.044088176352705 0.08591065292096245  C 8.104208416833668 0.028636884306986743  8.173346693386774 0  8.251503006012024 0  C 8.329659318637276 0  8.398797595190382 0.028636884306986743  8.458917835671343 0.08591065292096245  L 8.909819639278558 0.515463917525773  Z " stroke-width="0" stroke-dasharray="0" stroke="rgba(215, 215, 215, 1)" fill="none" transform="matrix(1 0 0 1 1139 104 )" class="stroke" mask="url(#Clip2)" />
  </g>
</svg>