<?xml version="1.0" encoding="utf-8"?>
<svg version="1.1" xmlns:xlink="http://www.w3.org/1999/xlink" width="15px" height="15px" viewBox="635 253 15 15" xmlns="http://www.w3.org/2000/svg">
  <path d="M 642.5 253  C 646.7 253  650 256.3  650 260.5  C 650 264.7  646.7 268  642.5 268  C 638.3 268  635 264.7  635 260.5  C 635 256.3  638.3 253  642.5 253  Z " fill-rule="nonzero" fill="rgba(240, 240, 240, 1)" stroke="none" class="fill" />
  <path d="M 642.5 253.5  C 646.42 253.5  649.5 256.58  649.5 260.5  C 649.5 264.42  646.42 267.5  642.5 267.5  C 638.58 267.5  635.5 264.42  635.5 260.5  C 635.5 256.58  638.58 253.5  642.5 253.5  Z " stroke-width="1" stroke-dasharray="0" stroke="rgba(0, 114, 231, 1)" fill="none" class="stroke" stroke-dashoffset="0.5" />
  <path d="M 642.5 264.25  C 640.4 264.25  638.75 262.6  638.75 260.5  C 638.75 258.4  640.4 256.75  642.5 256.75  C 644.6 256.75  646.25 258.4  646.25 260.5  C 646.25 262.6  644.6 264.25  642.5 264.25  " fill-rule="nonzero" fill="rgba(0, 114, 231, 1)" stroke="none" class="stroke btn_check" />
</svg>