<?xml version="1.0" encoding="utf-8"?>
<svg version="1.1" xmlns:xlink="http://www.w3.org/1999/xlink" width="15px" height="15px" viewBox="172 158 15 15" xmlns="http://www.w3.org/2000/svg">
  <path d="M 179.5 158  C 183.7 158  187 161.3  187 165.5  C 187 169.7  183.7 173  179.5 173  C 175.3 173  172 169.7  172 165.5  C 172 161.3  175.3 158  179.5 158  Z " fill-rule="nonzero" fill="rgba(255, 255, 255, 1)" stroke="none" class="fill" />
  <path d="M 179.5 158.5  C 183.42 158.5  186.5 161.58  186.5 165.5  C 186.5 169.42  183.42 172.5  179.5 172.5  C 175.58 172.5  172.5 169.42  172.5 165.5  C 172.5 161.58  175.58 158.5  179.5 158.5  Z " stroke-width="1" stroke-dasharray="0" stroke="rgba(2, 167, 240, 1)" fill="none" class="stroke" stroke-dashoffset="0.5" />
  <path d="M 179.5 169.25  C 177.4 169.25  175.75 167.6  175.75 165.5  C 175.75 163.4  177.4 161.75  179.5 161.75  C 181.6 161.75  183.25 163.4  183.25 165.5  C 183.25 167.6  181.6 169.25  179.5 169.25  " fill-rule="nonzero" fill="rgba(2, 167, 240, 1)" stroke="none" class="stroke btn_check" />
</svg>