<?xml version="1.0" encoding="utf-8"?>
<svg version="1.1" xmlns:xlink="http://www.w3.org/1999/xlink" width="10px" height="5px" xmlns="http://www.w3.org/2000/svg">
  <defs>
    <pattern id="BGPattern" patternUnits="userSpaceOnUse" alignment="0 0" imageRepeat="None" />
    <mask fill="white" id="Clip10">
      <path d="M 9.899799599198397 0.515463917525773  C 9.966599866399466 0.5727376861397465  10 0.6386025200458184  10 0.7130584192439865  C 10 0.7875143184421529  9.966599866399466 0.8533791523482237  9.899799599198397 0.9106529209621994  L 5.230460921843687 4.914089347079037  C 5.163660654642619 4.971363115693011  5.08684034736139 5  5 5  C 4.913159652638611 5  4.836339345357382 4.971363115693011  4.7695390781563125 4.914089347079037  L 0.1002004008016032 0.9106529209621994  C 0.033400133600534496 0.8533791523482237  0 0.7875143184421529  0 0.7130584192439865  C 0 0.6386025200458184  0.033400133600534496 0.5727376861397465  0.1002004008016032 0.515463917525773  L 0.6012024048096192 0.08591065292096245  C 0.6680026720106882 0.028636884306986743  0.7448229792919172 0  0.8316633266533067 0  C 0.9185036740146962 0  0.9953239812959253 0.028636884306986743  1.062124248496994 0.08591065292096245  L 5 3.4621993127147768  L 8.937875751503006 0.08591065292096245  C 9.004676018704075 0.028636884306986743  9.081496325985304 0  9.168336673346694 0  C 9.255177020708084 0  9.331997327989313 0.028636884306986743  9.39879759519038 0.08591065292096245  L 9.899799599198397 0.515463917525773  Z " fill-rule="evenodd" />
    </mask>
  </defs>
  <g transform="matrix(1 0 0 1 -1415 -107 )">
    <path d="M 9.899799599198397 0.515463917525773  C 9.966599866399466 0.5727376861397465  10 0.6386025200458184  10 0.7130584192439865  C 10 0.7875143184421529  9.966599866399466 0.8533791523482237  9.899799599198397 0.9106529209621994  L 5.230460921843687 4.914089347079037  C 5.163660654642619 4.971363115693011  5.08684034736139 5  5 5  C 4.913159652638611 5  4.836339345357382 4.971363115693011  4.7695390781563125 4.914089347079037  L 0.1002004008016032 0.9106529209621994  C 0.033400133600534496 0.8533791523482237  0 0.7875143184421529  0 0.7130584192439865  C 0 0.6386025200458184  0.033400133600534496 0.5727376861397465  0.1002004008016032 0.515463917525773  L 0.6012024048096192 0.08591065292096245  C 0.6680026720106882 0.028636884306986743  0.7448229792919172 0  0.8316633266533067 0  C 0.9185036740146962 0  0.9953239812959253 0.028636884306986743  1.062124248496994 0.08591065292096245  L 5 3.4621993127147768  L 8.937875751503006 0.08591065292096245  C 9.004676018704075 0.028636884306986743  9.081496325985304 0  9.168336673346694 0  C 9.255177020708084 0  9.331997327989313 0.028636884306986743  9.39879759519038 0.08591065292096245  L 9.899799599198397 0.515463917525773  Z " fill-rule="nonzero" fill="rgba(85, 85, 85, 1)" stroke="none" transform="matrix(1 0 0 1 1415 107 )" class="fill" />
    <path d="M 9.899799599198397 0.515463917525773  C 9.966599866399466 0.5727376861397465  10 0.6386025200458184  10 0.7130584192439865  C 10 0.7875143184421529  9.966599866399466 0.8533791523482237  9.899799599198397 0.9106529209621994  L 5.230460921843687 4.914089347079037  C 5.163660654642619 4.971363115693011  5.08684034736139 5  5 5  C 4.913159652638611 5  4.836339345357382 4.971363115693011  4.7695390781563125 4.914089347079037  L 0.1002004008016032 0.9106529209621994  C 0.033400133600534496 0.8533791523482237  0 0.7875143184421529  0 0.7130584192439865  C 0 0.6386025200458184  0.033400133600534496 0.5727376861397465  0.1002004008016032 0.515463917525773  L 0.6012024048096192 0.08591065292096245  C 0.6680026720106882 0.028636884306986743  0.7448229792919172 0  0.8316633266533067 0  C 0.9185036740146962 0  0.9953239812959253 0.028636884306986743  1.062124248496994 0.08591065292096245  L 5 3.4621993127147768  L 8.937875751503006 0.08591065292096245  C 9.004676018704075 0.028636884306986743  9.081496325985304 0  9.168336673346694 0  C 9.255177020708084 0  9.331997327989313 0.028636884306986743  9.39879759519038 0.08591065292096245  L 9.899799599198397 0.515463917525773  Z " stroke-width="0" stroke-dasharray="0" stroke="rgba(242, 242, 242, 1)" fill="none" transform="matrix(1 0 0 1 1415 107 )" class="stroke" mask="url(#Clip10)" />
  </g>
</svg>