<?xml version="1.0" encoding="utf-8"?>
<svg version="1.1" xmlns:xlink="http://www.w3.org/1999/xlink" width="15px" height="15px" viewBox="726 116 15 15" xmlns="http://www.w3.org/2000/svg">
  <path d="M 733.5 116  C 737.7 116  741 119.3  741 123.5  C 741 127.7  737.7 131  733.5 131  C 729.3 131  726 127.7  726 123.5  C 726 119.3  729.3 116  733.5 116  Z " fill-rule="nonzero" fill="rgba(255, 255, 255, 1)" stroke="none" class="fill" />
  <path d="M 733.5 116.5  C 737.42 116.5  740.5 119.58  740.5 123.5  C 740.5 127.42  737.42 130.5  733.5 130.5  C 729.58 130.5  726.5 127.42  726.5 123.5  C 726.5 119.58  729.58 116.5  733.5 116.5  Z " stroke-width="1" stroke-dasharray="0" stroke="rgba(0, 114, 231, 1)" fill="none" class="stroke" stroke-dashoffset="0.5" />
  <path d="M 733.5 127.25  C 731.4 127.25  729.75 125.6  729.75 123.5  C 729.75 121.4  731.4 119.75  733.5 119.75  C 735.6 119.75  737.25 121.4  737.25 123.5  C 737.25 125.6  735.6 127.25  733.5 127.25  " fill-rule="nonzero" fill="rgba(0, 114, 231, 1)" stroke="none" class="stroke btn_check" />
</svg>