<?xml version="1.0" encoding="utf-8"?>
<svg version="1.1" xmlns:xlink="http://www.w3.org/1999/xlink" width="51px" height="91px" xmlns="http://www.w3.org/2000/svg">
  <defs>
    <pattern id="BGPattern" patternUnits="userSpaceOnUse" alignment="0 0" imageRepeat="None" />
    <mask fill="white" id="Clip28">
      <path d="M 15 10  C 15 4.399999999999999  19.4 0  25 0  C 30.599999999999998 0  35 4.399999999999999  35 10  C 35 15.600000000000001  30.599999999999998 20  25 20  C 19.4 20  15 15.600000000000001  15 10  Z " fill-rule="evenodd" />
    </mask>
  </defs>
  <g transform="matrix(1 0 0 1 -65 -250 )">
    <path d="M 15 10  C 15 4.399999999999999  19.4 0  25 0  C 30.599999999999998 0  35 4.399999999999999  35 10  C 35 15.600000000000001  30.599999999999998 20  25 20  C 19.4 20  15 15.600000000000001  15 10  Z " fill-rule="nonzero" fill="rgba(255, 255, 255, 1)" stroke="none" transform="matrix(1 0 0 1 65 250 )" class="fill" />
    <path d="M 15 10  C 15 4.399999999999999  19.4 0  25 0  C 30.599999999999998 0  35 4.399999999999999  35 10  C 35 15.600000000000001  30.599999999999998 20  25 20  C 19.4 20  15 15.600000000000001  15 10  Z " stroke-width="2" stroke-dasharray="0" stroke="rgba(170, 170, 170, 1)" fill="none" transform="matrix(1 0 0 1 65 250 )" class="stroke" mask="url(#Clip28)" />
    <path d="M 0 30.5  L 50 30.5  M 25.5 20  L 25.5 65  M 5 90  L 25 65  M 25 65  L 45 90  " stroke-width="1" stroke-dasharray="0" stroke="rgba(170, 170, 170, 1)" fill="none" transform="matrix(1 0 0 1 65 250 )" class="stroke" />
  </g>
</svg>