<?xml version="1.0" encoding="utf-8"?>
<svg version="1.1" xmlns:xlink="http://www.w3.org/1999/xlink" width="15px" height="15px" viewBox="37 5129 15 15" xmlns="http://www.w3.org/2000/svg">
  <path d="M 44.5 5129  C 48.7 5129  52 5132.3  52 5136.5  C 52 5140.7  48.7 5144  44.5 5144  C 40.3 5144  37 5140.7  37 5136.5  C 37 5132.3  40.3 5129  44.5 5129  Z " fill-rule="nonzero" fill="rgba(240, 240, 240, 1)" stroke="none" class="fill" />
  <path d="M 44.5 5129.5  C 48.42 5129.5  51.5 5132.58  51.5 5136.5  C 51.5 5140.42  48.42 5143.5  44.5 5143.5  C 40.58 5143.5  37.5 5140.42  37.5 5136.5  C 37.5 5132.58  40.58 5129.5  44.5 5129.5  Z " stroke-width="1" stroke-dasharray="0" stroke="rgba(0, 114, 231, 1)" fill="none" class="stroke" stroke-dashoffset="0.5" />
  <path d="M 44.5 5140.25  C 42.4 5140.25  40.75 5138.6  40.75 5136.5  C 40.75 5134.4  42.4 5132.75  44.5 5132.75  C 46.6 5132.75  48.25 5134.4  48.25 5136.5  C 48.25 5138.6  46.6 5140.25  44.5 5140.25  " fill-rule="nonzero" fill="rgba(0, 114, 231, 1)" stroke="none" class="stroke btn_check" />
</svg>