<?xml version="1.0" encoding="utf-8"?>
<svg version="1.1" xmlns:xlink="http://www.w3.org/1999/xlink" width="15px" height="10px" preserveAspectRatio="xMinYMid meet" viewBox="1260 329 15 8" xmlns="http://www.w3.org/2000/svg">
  <path d="M 1210.5 379  L 1210.5 361  A 5 5 0 0 1 1215.5 356.5 L 1265 356.5  A 5 5 0 0 0 1270.5 351.5 L 1270.5 338  A 5 5 0 0 0 1265.5 333.5 L 1260 333.5  " stroke-width="1" stroke-dasharray="0" stroke="rgba(255, 51, 153, 1)" fill="none" class="stroke" />
  <path d="M 1210.5 374  A 3 3 0 0 0 1207.5 377 A 3 3 0 0 0 1210.5 380 A 3 3 0 0 0 1213.5 377 A 3 3 0 0 0 1210.5 374 Z " fill-rule="nonzero" fill="rgba(255, 51, 153, 1)" stroke="none" class="fill" />
</svg>