<?xml version="1.0" encoding="utf-8"?>
<svg version="1.1" xmlns:xlink="http://www.w3.org/1999/xlink" width="8px" height="11px" xmlns="http://www.w3.org/2000/svg">
  <defs>
    <pattern id="BGPattern" patternUnits="userSpaceOnUse" alignment="0 0" imageRepeat="None" />
    <mask fill="white" id="Clip12">
      <path d="M 7.86254295532646 0.6613226452905806  C 7.954180985108821 0.7348029392117555  8 0.8193052772211075  8 0.9148296593186376  C 8 1.0103540414161651  7.954180985108821 1.0948563794255173  7.86254295532646 1.1683366733466933  L 2.4604810996563575 5.5  L 7.86254295532646 9.831663326653306  C 7.954180985108821 9.905143620574483  8 9.989645958583834  8 10.085170340681362  C 8 10.180694722778892  7.954180985108821 10.265197060788243  7.86254295532646 10.33867735470942  L 7.175257731958763 10.889779559118237  C 7.083619702176404 10.963259853039412  6.9782359679266905 11  6.859106529209622 11  C 6.739977090492555 11  6.634593356242842 10.963259853039412  6.542955326460481 10.889779559118237  L 0.13745704467353953 5.753507014028056  C 0.04581901489117987 5.68002672010688  0 5.595524382097528  0 5.5  C 0 5.404475617902471  0.04581901489117987 5.319973279893119  0.13745704467353953 5.246492985971944  L 6.542955326460481 0.11022044088176364  C 6.634593356242842 0.03674014696058747  6.739977090492555 0  6.859106529209622 0  C 6.9782359679266905 0  7.083619702176404 0.03674014696058747  7.175257731958763 0.11022044088176364  L 7.86254295532646 0.6613226452905806  Z " fill-rule="evenodd" />
    </mask>
  </defs>
  <g transform="matrix(1 0 0 1 -72 -70 )">
    <path d="M 7.86254295532646 0.6613226452905806  C 7.954180985108821 0.7348029392117555  8 0.8193052772211075  8 0.9148296593186376  C 8 1.0103540414161651  7.954180985108821 1.0948563794255173  7.86254295532646 1.1683366733466933  L 2.4604810996563575 5.5  L 7.86254295532646 9.831663326653306  C 7.954180985108821 9.905143620574483  8 9.989645958583834  8 10.085170340681362  C 8 10.180694722778892  7.954180985108821 10.265197060788243  7.86254295532646 10.33867735470942  L 7.175257731958763 10.889779559118237  C 7.083619702176404 10.963259853039412  6.9782359679266905 11  6.859106529209622 11  C 6.739977090492555 11  6.634593356242842 10.963259853039412  6.542955326460481 10.889779559118237  L 0.13745704467353953 5.753507014028056  C 0.04581901489117987 5.68002672010688  0 5.595524382097528  0 5.5  C 0 5.404475617902471  0.04581901489117987 5.319973279893119  0.13745704467353953 5.246492985971944  L 6.542955326460481 0.11022044088176364  C 6.634593356242842 0.03674014696058747  6.739977090492555 0  6.859106529209622 0  C 6.9782359679266905 0  7.083619702176404 0.03674014696058747  7.175257731958763 0.11022044088176364  L 7.86254295532646 0.6613226452905806  Z " fill-rule="nonzero" fill="rgba(255, 255, 255, 1)" stroke="none" transform="matrix(1 0 0 1 72 70 )" class="fill" />
    <path d="M 7.86254295532646 0.6613226452905806  C 7.954180985108821 0.7348029392117555  8 0.8193052772211075  8 0.9148296593186376  C 8 1.0103540414161651  7.954180985108821 1.0948563794255173  7.86254295532646 1.1683366733466933  L 2.4604810996563575 5.5  L 7.86254295532646 9.831663326653306  C 7.954180985108821 9.905143620574483  8 9.989645958583834  8 10.085170340681362  C 8 10.180694722778892  7.954180985108821 10.265197060788243  7.86254295532646 10.33867735470942  L 7.175257731958763 10.889779559118237  C 7.083619702176404 10.963259853039412  6.9782359679266905 11  6.859106529209622 11  C 6.739977090492555 11  6.634593356242842 10.963259853039412  6.542955326460481 10.889779559118237  L 0.13745704467353953 5.753507014028056  C 0.04581901489117987 5.68002672010688  0 5.595524382097528  0 5.5  C 0 5.404475617902471  0.04581901489117987 5.319973279893119  0.13745704467353953 5.246492985971944  L 6.542955326460481 0.11022044088176364  C 6.634593356242842 0.03674014696058747  6.739977090492555 0  6.859106529209622 0  C 6.9782359679266905 0  7.083619702176404 0.03674014696058747  7.175257731958763 0.11022044088176364  L 7.86254295532646 0.6613226452905806  Z " stroke-width="0" stroke-dasharray="0" stroke="rgba(255, 255, 255, 0)" fill="none" transform="matrix(1 0 0 1 72 70 )" class="stroke" mask="url(#Clip12)" />
  </g>
</svg>