<?xml version="1.0" encoding="utf-8"?>
<svg version="1.1" xmlns:xlink="http://www.w3.org/1999/xlink" width="15px" height="15px" viewBox="100 161 15 15" xmlns="http://www.w3.org/2000/svg">
  <path d="M 107.5 161  C 111.7 161  115 164.3  115 168.5  C 115 172.7  111.7 176  107.5 176  C 103.3 176  100 172.7  100 168.5  C 100 164.3  103.3 161  107.5 161  Z " fill-rule="nonzero" fill="rgba(240, 240, 240, 1)" stroke="none" class="fill" />
  <path d="M 107.5 161.5  C 111.42 161.5  114.5 164.58  114.5 168.5  C 114.5 172.42  111.42 175.5  107.5 175.5  C 103.58 175.5  100.5 172.42  100.5 168.5  C 100.5 164.58  103.58 161.5  107.5 161.5  Z " stroke-width="1" stroke-dasharray="0" stroke="rgba(97, 126, 245, 1)" fill="none" class="stroke" stroke-dashoffset="0.5" />
  <path d="M 107.5 172.25  C 105.4 172.25  103.75 170.6  103.75 168.5  C 103.75 166.4  105.4 164.75  107.5 164.75  C 109.6 164.75  111.25 166.4  111.25 168.5  C 111.25 170.6  109.6 172.25  107.5 172.25  " fill-rule="nonzero" fill="rgba(97, 126, 245, 1)" stroke="none" class="stroke btn_check" />
</svg>