<?xml version="1.0" encoding="utf-8"?>
<svg version="1.1" xmlns:xlink="http://www.w3.org/1999/xlink" width="13px" height="13px" viewBox="62 228 13 13" xmlns="http://www.w3.org/2000/svg">
  <path d="M 68.5 228  C 72.14 228  75 230.86  75 234.5  C 75 238.14  72.14 241  68.5 241  C 64.86 241  62 238.14  62 234.5  C 62 230.86  64.86 228  68.5 228  Z " fill-rule="nonzero" fill="rgba(240, 240, 240, 1)" stroke="none" class="fill" />
  <path d="M 68.5 228.5  C 71.86 228.5  74.5 231.14  74.5 234.5  C 74.5 237.86  71.86 240.5  68.5 240.5  C 65.14 240.5  62.5 237.86  62.5 234.5  C 62.5 231.14  65.14 228.5  68.5 228.5  Z " stroke-width="1" stroke-dasharray="0" stroke="rgba(121, 121, 121, 1)" fill="none" class="stroke" stroke-dashoffset="0.5" />
  <path d="M 68.5 237.75  C 66.68 237.75  65.25 236.32  65.25 234.5  C 65.25 232.68  66.68 231.25  68.5 231.25  C 70.32 231.25  71.75 232.68  71.75 234.5  C 71.75 236.32  70.32 237.75  68.5 237.75  " fill-rule="nonzero" fill="rgba(121, 121, 121, 1)" stroke="none" class="stroke btn_check" />
</svg>