<?xml version="1.0" encoding="utf-8"?>
<svg version="1.1" xmlns:xlink="http://www.w3.org/1999/xlink" width="15px" height="15px" viewBox="817 216 15 15" xmlns="http://www.w3.org/2000/svg">
  <path d="M 824.5 216  C 828.7 216  832 219.3  832 223.5  C 832 227.7  828.7 231  824.5 231  C 820.3 231  817 227.7  817 223.5  C 817 219.3  820.3 216  824.5 216  Z " fill-rule="nonzero" fill="rgba(240, 240, 240, 1)" stroke="none" class="fill" />
  <path d="M 824.5 216.5  C 828.42 216.5  831.5 219.58  831.5 223.5  C 831.5 227.42  828.42 230.5  824.5 230.5  C 820.58 230.5  817.5 227.42  817.5 223.5  C 817.5 219.58  820.58 216.5  824.5 216.5  Z " stroke-width="1" stroke-dasharray="0" stroke="rgba(2, 167, 240, 1)" fill="none" class="stroke" stroke-dashoffset="0.5" />
  <path d="M 824.5 227.25  C 822.4 227.25  820.75 225.6  820.75 223.5  C 820.75 221.4  822.4 219.75  824.5 219.75  C 826.6 219.75  828.25 221.4  828.25 223.5  C 828.25 225.6  826.6 227.25  824.5 227.25  " fill-rule="nonzero" fill="rgba(2, 167, 240, 1)" stroke="none" class="stroke btn_check" />
</svg>