<?xml version="1.0" encoding="utf-8"?>
<svg version="1.1" xmlns:xlink="http://www.w3.org/1999/xlink" width="15px" height="10px" xmlns="http://www.w3.org/2000/svg">
  <defs>
    <pattern id="BGPattern" patternUnits="userSpaceOnUse" alignment="0 0" imageRepeat="None" />
    <mask fill="white" id="Clip11">
      <path d="M 14.849699398797595 1.030927835051546  C 14.9498997995992 1.145475372279493  15 1.2772050400916368  15 1.426116838487973  C 15 1.5750286368843058  14.9498997995992 1.7067583046964474  14.849699398797595 1.8213058419243988  L 7.845691382765531 9.828178694158074  C 7.745490981963928 9.942726231386022  7.630260521042085 10  7.5 10  C 7.369739478957917 10  7.254509018036074 9.942726231386022  7.154308617234468 9.828178694158074  L 0.1503006012024048 1.8213058419243988  C 0.05010020040080175 1.7067583046964474  0 1.5750286368843058  0 1.426116838487973  C 0 1.2772050400916368  0.05010020040080175 1.145475372279493  0.1503006012024048 1.030927835051546  L 0.9018036072144289 0.1718213058419249  C 1.0020040080160324 0.057273768613973486  1.117234468937876 0  1.24749498997996 0  C 1.3777555110220443 0  1.4929859719438878 0.057273768613973486  1.593186372745491 0.1718213058419249  L 7.5 6.9243986254295535  L 13.40681362725451 0.1718213058419249  C 13.507014028056114 0.057273768613973486  13.622244488977957 0  13.75250501002004 0  C 13.882765531062127 0  13.99799599198397 0.057273768613973486  14.098196392785573 0.1718213058419249  L 14.849699398797595 1.030927835051546  Z " fill-rule="evenodd" />
    </mask>
  </defs>
  <g transform="matrix(1 0 0 1 -1455 -26 )">
    <path d="M 14.849699398797595 1.030927835051546  C 14.9498997995992 1.145475372279493  15 1.2772050400916368  15 1.426116838487973  C 15 1.5750286368843058  14.9498997995992 1.7067583046964474  14.849699398797595 1.8213058419243988  L 7.845691382765531 9.828178694158074  C 7.745490981963928 9.942726231386022  7.630260521042085 10  7.5 10  C 7.369739478957917 10  7.254509018036074 9.942726231386022  7.154308617234468 9.828178694158074  L 0.1503006012024048 1.8213058419243988  C 0.05010020040080175 1.7067583046964474  0 1.5750286368843058  0 1.426116838487973  C 0 1.2772050400916368  0.05010020040080175 1.145475372279493  0.1503006012024048 1.030927835051546  L 0.9018036072144289 0.1718213058419249  C 1.0020040080160324 0.057273768613973486  1.117234468937876 0  1.24749498997996 0  C 1.3777555110220443 0  1.4929859719438878 0.057273768613973486  1.593186372745491 0.1718213058419249  L 7.5 6.9243986254295535  L 13.40681362725451 0.1718213058419249  C 13.507014028056114 0.057273768613973486  13.622244488977957 0  13.75250501002004 0  C 13.882765531062127 0  13.99799599198397 0.057273768613973486  14.098196392785573 0.1718213058419249  L 14.849699398797595 1.030927835051546  Z " fill-rule="nonzero" fill="rgba(255, 255, 255, 1)" stroke="none" transform="matrix(1 0 0 1 1455 26 )" class="fill" />
    <path d="M 14.849699398797595 1.030927835051546  C 14.9498997995992 1.145475372279493  15 1.2772050400916368  15 1.426116838487973  C 15 1.5750286368843058  14.9498997995992 1.7067583046964474  14.849699398797595 1.8213058419243988  L 7.845691382765531 9.828178694158074  C 7.745490981963928 9.942726231386022  7.630260521042085 10  7.5 10  C 7.369739478957917 10  7.254509018036074 9.942726231386022  7.154308617234468 9.828178694158074  L 0.1503006012024048 1.8213058419243988  C 0.05010020040080175 1.7067583046964474  0 1.5750286368843058  0 1.426116838487973  C 0 1.2772050400916368  0.05010020040080175 1.145475372279493  0.1503006012024048 1.030927835051546  L 0.9018036072144289 0.1718213058419249  C 1.0020040080160324 0.057273768613973486  1.117234468937876 0  1.24749498997996 0  C 1.3777555110220443 0  1.4929859719438878 0.057273768613973486  1.593186372745491 0.1718213058419249  L 7.5 6.9243986254295535  L 13.40681362725451 0.1718213058419249  C 13.507014028056114 0.057273768613973486  13.622244488977957 0  13.75250501002004 0  C 13.882765531062127 0  13.99799599198397 0.057273768613973486  14.098196392785573 0.1718213058419249  L 14.849699398797595 1.030927835051546  Z " stroke-width="0" stroke-dasharray="0" stroke="rgba(255, 255, 255, 0)" fill="none" transform="matrix(1 0 0 1 1455 26 )" class="stroke" mask="url(#Clip11)" />
  </g>
</svg>