<?xml version="1.0" encoding="utf-8"?>
<svg version="1.1" xmlns:xlink="http://www.w3.org/1999/xlink" width="15px" height="15px" viewBox="636 116 15 15" xmlns="http://www.w3.org/2000/svg">
  <path d="M 643.5 116  C 647.7 116  651 119.3  651 123.5  C 651 127.7  647.7 131  643.5 131  C 639.3 131  636 127.7  636 123.5  C 636 119.3  639.3 116  643.5 116  Z " fill-rule="nonzero" fill="rgba(240, 240, 240, 1)" stroke="none" class="fill" />
  <path d="M 643.5 116.5  C 647.42 116.5  650.5 119.58  650.5 123.5  C 650.5 127.42  647.42 130.5  643.5 130.5  C 639.58 130.5  636.5 127.42  636.5 123.5  C 636.5 119.58  639.58 116.5  643.5 116.5  Z " stroke-width="1" stroke-dasharray="0" stroke="rgba(0, 114, 231, 1)" fill="none" class="stroke" stroke-dashoffset="0.5" />
  <path d="M 643.5 127.25  C 641.4 127.25  639.75 125.6  639.75 123.5  C 639.75 121.4  641.4 119.75  643.5 119.75  C 645.6 119.75  647.25 121.4  647.25 123.5  C 647.25 125.6  645.6 127.25  643.5 127.25  " fill-rule="nonzero" fill="rgba(0, 114, 231, 1)" stroke="none" class="stroke btn_check" />
</svg>