<?xml version="1.0" encoding="utf-8"?>
<svg version="1.1" xmlns:xlink="http://www.w3.org/1999/xlink" width="9px" height="10px" xmlns="http://www.w3.org/2000/svg">
  <defs>
    <pattern id="BGPattern" patternUnits="userSpaceOnUse" alignment="0 0" imageRepeat="None" />
    <mask fill="white" id="Clip14">
      <path d="M 0 5  C 0 2.1999999999999997  1.9799999999999998 0  4.5 0  C 7.0200000000000005 0  9 2.1999999999999997  9 5  C 9 7.800000000000001  7.0200000000000005 10  4.5 10  C 1.9799999999999998 10  0 7.800000000000001  0 5  Z " fill-rule="evenodd" />
    </mask>
  </defs>
  <g transform="matrix(1 0 0 1 -1103 -98 )">
    <path d="M 0 5  C 0 2.1999999999999997  1.9799999999999998 0  4.5 0  C 7.0200000000000005 0  9 2.1999999999999997  9 5  C 9 7.800000000000001  7.0200000000000005 10  4.5 10  C 1.9799999999999998 10  0 7.800000000000001  0 5  Z " fill-rule="nonzero" fill="rgba(255, 255, 255, 0)" stroke="none" transform="matrix(1 0 0 1 1103 98 )" class="fill" />
    <path d="M 0 5  C 0 2.1999999999999997  1.9799999999999998 0  4.5 0  C 7.0200000000000005 0  9 2.1999999999999997  9 5  C 9 7.800000000000001  7.0200000000000005 10  4.5 10  C 1.9799999999999998 10  0 7.800000000000001  0 5  Z " stroke-width="4" stroke-dasharray="0" stroke="rgba(2, 167, 240, 0)" fill="none" transform="matrix(1 0 0 1 1103 98 )" class="stroke" mask="url(#Clip14)" />
  </g>
</svg>