<?xml version="1.0" encoding="utf-8"?>
<svg version="1.1" xmlns:xlink="http://www.w3.org/1999/xlink" width="15px" height="15px" viewBox="315 125 15 15" xmlns="http://www.w3.org/2000/svg">
  <path d="M 322.5 125  C 326.7 125  330 128.3  330 132.5  C 330 136.7  326.7 140  322.5 140  C 318.3 140  315 136.7  315 132.5  C 315 128.3  318.3 125  322.5 125  Z " fill-rule="nonzero" fill="rgba(255, 255, 255, 1)" stroke="none" class="fill" />
  <path d="M 322.5 125.5  C 326.42 125.5  329.5 128.58  329.5 132.5  C 329.5 136.42  326.42 139.5  322.5 139.5  C 318.58 139.5  315.5 136.42  315.5 132.5  C 315.5 128.58  318.58 125.5  322.5 125.5  Z " stroke-width="1" stroke-dasharray="0" stroke="rgba(215, 215, 215, 1)" fill="none" class="stroke" stroke-dashoffset="0.5" />
  <path d="M 322.5 136.25  C 320.4 136.25  318.75 134.6  318.75 132.5  C 318.75 130.4  320.4 128.75  322.5 128.75  C 324.6 128.75  326.25 130.4  326.25 132.5  C 326.25 134.6  324.6 136.25  322.5 136.25  " fill-rule="nonzero" fill="rgba(215, 215, 215, 1)" stroke="none" class="stroke btn_check" />
</svg>