<?xml version="1.0" encoding="utf-8"?>
<svg version="1.1" xmlns:xlink="http://www.w3.org/1999/xlink" width="13px" height="13px" viewBox="67 148 13 13" xmlns="http://www.w3.org/2000/svg">
  <path d="M 73.5 148  C 77.14 148  80 150.86  80 154.5  C 80 158.14  77.14 161  73.5 161  C 69.86 161  67 158.14  67 154.5  C 67 150.86  69.86 148  73.5 148  Z " fill-rule="nonzero" fill="rgba(255, 255, 255, 1)" stroke="none" class="fill" />
  <path d="M 73.5 148.5  C 76.86 148.5  79.5 151.14  79.5 154.5  C 79.5 157.86  76.86 160.5  73.5 160.5  C 70.14 160.5  67.5 157.86  67.5 154.5  C 67.5 151.14  70.14 148.5  73.5 148.5  Z " stroke-width="1" stroke-dasharray="0" stroke="rgba(121, 121, 121, 1)" fill="none" class="stroke" stroke-dashoffset="0.5" />
  <path d="M 73.5 157.75  C 71.68 157.75  70.25 156.32  70.25 154.5  C 70.25 152.68  71.68 151.25  73.5 151.25  C 75.32 151.25  76.75 152.68  76.75 154.5  C 76.75 156.32  75.32 157.75  73.5 157.75  " fill-rule="nonzero" fill="rgba(121, 121, 121, 1)" stroke="none" class="stroke btn_check" />
</svg>