<?xml version="1.0" encoding="utf-8"?>
<svg version="1.1" xmlns:xlink="http://www.w3.org/1999/xlink" width="20px" height="20px" xmlns="http://www.w3.org/2000/svg">
  <defs>
    <pattern id="BGPattern" patternUnits="userSpaceOnUse" alignment="0 0" imageRepeat="None" />
    <mask fill="white" id="Clip4">
      <path d="M 10 5.299479166666668  L 11.9140625 12.473958333333336  L 8.0859375 12.473958333333336  L 10 5.299479166666668  Z M 11.953125 12.578125  L 13.033854166666668 16.666666666666668  L 17.083333333333332 16.666666666666668  L 12.864583333333332 3.3333333333333326  L 7.135416666666666 3.3333333333333326  L 2.916666666666667 16.666666666666668  L 6.966145833333334 16.666666666666668  L 11.953125 12.578125  Z M 18.893229166666668 1.1067708333333326  C 19.631076388888886 1.8446180555555536  20 2.725694444444444  20 3.75  L 20 16.25  C 20 17.274305555555557  19.631076388888886 18.155381944444443  18.893229166666668 18.893229166666668  C 18.155381944444446 19.63107638888889  17.274305555555557 20  16.25 20  L 3.75 20  C 2.7256944444444446 20  1.8446180555555558 19.63107638888889  1.1067708333333333 18.893229166666668  C 0.3689236111111111 18.155381944444443  0 17.274305555555557  0 16.25  L 0 3.75  C 0 2.725694444444444  0.3689236111111111 1.8446180555555536  1.1067708333333333 1.1067708333333326  C 1.8446180555555558 0.3689236111111094  2.7256944444444446 0  3.75 0  L 16.25 0  C 17.274305555555557 0  18.155381944444446 0.3689236111111094  18.893229166666668 1.1067708333333326  Z " fill-rule="evenodd" />
    </mask>
  </defs>
  <g transform="matrix(1 0 0 1 -1028 -293 )">
    <path d="M 10 5.299479166666668  L 11.9140625 12.473958333333336  L 8.0859375 12.473958333333336  L 10 5.299479166666668  Z M 11.953125 12.578125  L 13.033854166666668 16.666666666666668  L 17.083333333333332 16.666666666666668  L 12.864583333333332 3.3333333333333326  L 7.135416666666666 3.3333333333333326  L 2.916666666666667 16.666666666666668  L 6.966145833333334 16.666666666666668  L 11.953125 12.578125  Z M 18.893229166666668 1.1067708333333326  C 19.631076388888886 1.8446180555555536  20 2.725694444444444  20 3.75  L 20 16.25  C 20 17.274305555555557  19.631076388888886 18.155381944444443  18.893229166666668 18.893229166666668  C 18.155381944444446 19.63107638888889  17.274305555555557 20  16.25 20  L 3.75 20  C 2.7256944444444446 20  1.8446180555555558 19.63107638888889  1.1067708333333333 18.893229166666668  C 0.3689236111111111 18.155381944444443  0 17.274305555555557  0 16.25  L 0 3.75  C 0 2.725694444444444  0.3689236111111111 1.8446180555555536  1.1067708333333333 1.1067708333333326  C 1.8446180555555558 0.3689236111111094  2.7256944444444446 0  3.75 0  L 16.25 0  C 17.274305555555557 0  18.155381944444446 0.3689236111111094  18.893229166666668 1.1067708333333326  Z " fill-rule="nonzero" fill="rgba(0, 114, 231, 1)" stroke="none" transform="matrix(1 0 0 1 1028 293 )" class="fill" />
    <path d="M 10 5.299479166666668  L 11.9140625 12.473958333333336  L 8.0859375 12.473958333333336  L 10 5.299479166666668  Z " stroke-width="0" stroke-dasharray="0" stroke="rgba(255, 255, 255, 0)" fill="none" transform="matrix(1 0 0 1 1028 293 )" class="stroke" mask="url(#Clip4)" />
    <path d="M 11.953125 12.578125  L 13.033854166666668 16.666666666666668  L 17.083333333333332 16.666666666666668  L 12.864583333333332 3.3333333333333326  L 7.135416666666666 3.3333333333333326  L 2.916666666666667 16.666666666666668  L 6.966145833333334 16.666666666666668  L 11.953125 12.578125  Z " stroke-width="0" stroke-dasharray="0" stroke="rgba(255, 255, 255, 0)" fill="none" transform="matrix(1 0 0 1 1028 293 )" class="stroke" mask="url(#Clip4)" />
    <path d="M 18.893229166666668 1.1067708333333326  C 19.631076388888886 1.8446180555555536  20 2.725694444444444  20 3.75  L 20 16.25  C 20 17.274305555555557  19.631076388888886 18.155381944444443  18.893229166666668 18.893229166666668  C 18.155381944444446 19.63107638888889  17.274305555555557 20  16.25 20  L 3.75 20  C 2.7256944444444446 20  1.8446180555555558 19.63107638888889  1.1067708333333333 18.893229166666668  C 0.3689236111111111 18.155381944444443  0 17.274305555555557  0 16.25  L 0 3.75  C 0 2.725694444444444  0.3689236111111111 1.8446180555555536  1.1067708333333333 1.1067708333333326  C 1.8446180555555558 0.3689236111111094  2.7256944444444446 0  3.75 0  L 16.25 0  C 17.274305555555557 0  18.155381944444446 0.3689236111111094  18.893229166666668 1.1067708333333326  Z " stroke-width="0" stroke-dasharray="0" stroke="rgba(255, 255, 255, 0)" fill="none" transform="matrix(1 0 0 1 1028 293 )" class="stroke" mask="url(#Clip4)" />
  </g>
</svg>