<?xml version="1.0" encoding="utf-8"?>
<svg version="1.1" xmlns:xlink="http://www.w3.org/1999/xlink" width="20px" height="20px" xmlns="http://www.w3.org/2000/svg">
  <defs>
    <pattern id="BGPattern" patternUnits="userSpaceOnUse" alignment="0 0" imageRepeat="None" />
    <mask fill="white" id="Clip5">
      <path d="M 13.543459615384617 14.61673240234375  L 9.949123192307693 18.267230312500004  C 12.00741512488455 20.35090886132462  15.278278899789502 20.532145378739276  17.547550384615384 18.6882544140625  L 13.543459615384617 14.61673240234375  Z M 8.147162538461538 18.26479666015625  L 13.085780769230768 13.253879843750001  L 13.5314785 12.80121810546875  L 17.025173480769233 9.248066796875  L 18.355077961538463 7.897382558593751  C 19.209006867734036 7.029788369290326  19.688712435450388 5.853271762655362  19.688712435450388 4.626536416015626  C 19.688712435450388 2.0713714251332895  17.6492091833303 0  15.133354423076923 0  C 13.924904788791626 0  12.765974883653952 0.4876743486289461  11.911630884615384 1.3556902734375  L 1.3682440576923076 12.06381751953125  C 0.5139973957705491 12.93173443211198  0.03411331496591656 14.10868874386454  0.03411331496591656 15.335880488281253  C 0.03411331496591656 17.891995883319495  2.074375168731576 19.96413682855024  4.591165711538461 19.96413682855024  C 5.800064726808552 19.96413682855024  6.959425607260451 19.476282108473224  7.814087365384616 18.60794345703125  L 8.147162538461538 18.26479666015625  Z M 12.141668403846154 12.292582050781249  L 7.588842288461538 7.66861802734375  L 12.86053569230769 2.31455439453125  C 13.468752959157907 1.6622824811945123  14.314348725851234 1.2927908030759958  15.198880555432863 1.2927908030759958  C 16.977527633040612 1.2927908030759958  18.41940597850979 2.7571984976931256  18.41940597850979 4.563636935888496  C 18.41940597850979 5.461989575307337  18.05559878774694 6.320797775855247  17.413361826923076 6.9385184375  L 12.141668403846154 12.292582050781249  Z M 18.43894580769231 17.785364589843752  L 18.44134203846154 17.785364589843752  L 18.43894580769231 17.785364589843752  Z M 18.45092692307692 17.78536458984375  C 20.26378850535722 15.4755087616928  20.08128767869326 12.151731755743215  18.02679523076923 10.06091099609375  L 14.432458826923078 13.71140890625  L 18.45092692307692 17.78536458984375  Z " fill-rule="evenodd" />
    </mask>
  </defs>
  <g transform="matrix(1 0 0 1 -1065 -293 )">
    <path d="M 13.543459615384617 14.61673240234375  L 9.949123192307693 18.267230312500004  C 12.00741512488455 20.35090886132462  15.278278899789502 20.532145378739276  17.547550384615384 18.6882544140625  L 13.543459615384617 14.61673240234375  Z M 8.147162538461538 18.26479666015625  L 13.085780769230768 13.253879843750001  L 13.5314785 12.80121810546875  L 17.025173480769233 9.248066796875  L 18.355077961538463 7.897382558593751  C 19.209006867734036 7.029788369290326  19.688712435450388 5.853271762655362  19.688712435450388 4.626536416015626  C 19.688712435450388 2.0713714251332895  17.6492091833303 0  15.133354423076923 0  C 13.924904788791626 0  12.765974883653952 0.4876743486289461  11.911630884615384 1.3556902734375  L 1.3682440576923076 12.06381751953125  C 0.5139973957705491 12.93173443211198  0.03411331496591656 14.10868874386454  0.03411331496591656 15.335880488281253  C 0.03411331496591656 17.891995883319495  2.074375168731576 19.96413682855024  4.591165711538461 19.96413682855024  C 5.800064726808552 19.96413682855024  6.959425607260451 19.476282108473224  7.814087365384616 18.60794345703125  L 8.147162538461538 18.26479666015625  Z M 12.141668403846154 12.292582050781249  L 7.588842288461538 7.66861802734375  L 12.86053569230769 2.31455439453125  C 13.468752959157907 1.6622824811945123  14.314348725851234 1.2927908030759958  15.198880555432863 1.2927908030759958  C 16.977527633040612 1.2927908030759958  18.41940597850979 2.7571984976931256  18.41940597850979 4.563636935888496  C 18.41940597850979 5.461989575307337  18.05559878774694 6.320797775855247  17.413361826923076 6.9385184375  L 12.141668403846154 12.292582050781249  Z M 18.43894580769231 17.785364589843752  L 18.44134203846154 17.785364589843752  L 18.43894580769231 17.785364589843752  Z M 18.45092692307692 17.78536458984375  C 20.26378850535722 15.4755087616928  20.08128767869326 12.151731755743215  18.02679523076923 10.06091099609375  L 14.432458826923078 13.71140890625  L 18.45092692307692 17.78536458984375  Z " fill-rule="nonzero" fill="rgba(0, 114, 231, 1)" stroke="none" transform="matrix(1 0 0 1 1065 293 )" class="fill" />
    <path d="M 13.543459615384617 14.61673240234375  L 9.949123192307693 18.267230312500004  C 12.00741512488455 20.35090886132462  15.278278899789502 20.532145378739276  17.547550384615384 18.6882544140625  L 13.543459615384617 14.61673240234375  Z " stroke-width="0" stroke-dasharray="0" stroke="rgba(255, 255, 255, 0)" fill="none" transform="matrix(1 0 0 1 1065 293 )" class="stroke" mask="url(#Clip5)" />
    <path d="M 8.147162538461538 18.26479666015625  L 13.085780769230768 13.253879843750001  L 13.5314785 12.80121810546875  L 17.025173480769233 9.248066796875  L 18.355077961538463 7.897382558593751  C 19.209006867734036 7.029788369290326  19.688712435450388 5.853271762655362  19.688712435450388 4.626536416015626  C 19.688712435450388 2.0713714251332895  17.6492091833303 0  15.133354423076923 0  C 13.924904788791626 0  12.765974883653952 0.4876743486289461  11.911630884615384 1.3556902734375  L 1.3682440576923076 12.06381751953125  C 0.5139973957705491 12.93173443211198  0.03411331496591656 14.10868874386454  0.03411331496591656 15.335880488281253  C 0.03411331496591656 17.891995883319495  2.074375168731576 19.96413682855024  4.591165711538461 19.96413682855024  C 5.800064726808552 19.96413682855024  6.959425607260451 19.476282108473224  7.814087365384616 18.60794345703125  L 8.147162538461538 18.26479666015625  Z " stroke-width="0" stroke-dasharray="0" stroke="rgba(255, 255, 255, 0)" fill="none" transform="matrix(1 0 0 1 1065 293 )" class="stroke" mask="url(#Clip5)" />
    <path d="M 12.141668403846154 12.292582050781249  L 7.588842288461538 7.66861802734375  L 12.86053569230769 2.31455439453125  C 13.468752959157907 1.6622824811945123  14.314348725851234 1.2927908030759958  15.198880555432863 1.2927908030759958  C 16.977527633040612 1.2927908030759958  18.41940597850979 2.7571984976931256  18.41940597850979 4.563636935888496  C 18.41940597850979 5.461989575307337  18.05559878774694 6.320797775855247  17.413361826923076 6.9385184375  L 12.141668403846154 12.292582050781249  Z " stroke-width="0" stroke-dasharray="0" stroke="rgba(255, 255, 255, 0)" fill="none" transform="matrix(1 0 0 1 1065 293 )" class="stroke" mask="url(#Clip5)" />
    <path d="M 18.43894580769231 17.785364589843752  L 18.44134203846154 17.785364589843752  L 18.43894580769231 17.785364589843752  Z " stroke-width="0" stroke-dasharray="0" stroke="rgba(255, 255, 255, 0)" fill="none" transform="matrix(1 0 0 1 1065 293 )" class="stroke" mask="url(#Clip5)" />
    <path d="M 18.45092692307692 17.78536458984375  C 20.26378850535722 15.4755087616928  20.08128767869326 12.151731755743215  18.02679523076923 10.06091099609375  L 14.432458826923078 13.71140890625  L 18.45092692307692 17.78536458984375  Z " stroke-width="0" stroke-dasharray="0" stroke="rgba(255, 255, 255, 0)" fill="none" transform="matrix(1 0 0 1 1065 293 )" class="stroke" mask="url(#Clip5)" />
  </g>
</svg>