<?xml version="1.0" encoding="utf-8"?>
<svg version="1.1" xmlns:xlink="http://www.w3.org/1999/xlink" width="15px" height="15px" viewBox="181 736 15 15" xmlns="http://www.w3.org/2000/svg">
  <path d="M 188.5 736  C 192.7 736  196 739.3  196 743.5  C 196 747.7  192.7 751  188.5 751  C 184.3 751  181 747.7  181 743.5  C 181 739.3  184.3 736  188.5 736  Z " fill-rule="nonzero" fill="rgba(240, 240, 240, 1)" stroke="none" class="fill" />
  <path d="M 188.5 736.5  C 192.42 736.5  195.5 739.58  195.5 743.5  C 195.5 747.42  192.42 750.5  188.5 750.5  C 184.58 750.5  181.5 747.42  181.5 743.5  C 181.5 739.58  184.58 736.5  188.5 736.5  Z " stroke-width="1" stroke-dasharray="0" stroke="rgba(2, 167, 240, 1)" fill="none" class="stroke" stroke-dashoffset="0.5" />
  <path d="M 188.5 747.25  C 186.4 747.25  184.75 745.6  184.75 743.5  C 184.75 741.4  186.4 739.75  188.5 739.75  C 190.6 739.75  192.25 741.4  192.25 743.5  C 192.25 745.6  190.6 747.25  188.5 747.25  " fill-rule="nonzero" fill="rgba(2, 167, 240, 1)" stroke="none" class="stroke btn_check" />
</svg>