<?xml version="1.0" encoding="utf-8"?>
<svg version="1.1" xmlns:xlink="http://www.w3.org/1999/xlink" width="15px" height="15px" viewBox="603 586.5 15 15" xmlns="http://www.w3.org/2000/svg">
  <path d="M 610.5 586.5  C 614.7 586.5  618 589.8  618 594  C 618 598.2  614.7 601.5  610.5 601.5  C 606.3 601.5  603 598.2  603 594  C 603 589.8  606.3 586.5  610.5 586.5  Z " fill-rule="nonzero" fill="rgba(255, 255, 255, 1)" stroke="none" class="fill" />
  <path d="M 610.5 587  C 614.42 587  617.5 590.08  617.5 594  C 617.5 597.92  614.42 601  610.5 601  C 606.58 601  603.5 597.92  603.5 594  C 603.5 590.08  606.58 587  610.5 587  Z " stroke-width="1" stroke-dasharray="0" stroke="rgba(0, 114, 231, 1)" fill="none" class="stroke" stroke-dashoffset="0.5" />
  <path d="M 610.5 597.75  C 608.4 597.75  606.75 596.1  606.75 594  C 606.75 591.9  608.4 590.25  610.5 590.25  C 612.6 590.25  614.25 591.9  614.25 594  C 614.25 596.1  612.6 597.75  610.5 597.75  " fill-rule="nonzero" fill="rgba(0, 114, 231, 1)" stroke="none" class="stroke btn_check" />
</svg>