<?xml version="1.0" encoding="utf-8"?>
<svg version="1.1" xmlns:xlink="http://www.w3.org/1999/xlink" width="15px" height="15px" viewBox="491 586.5 15 15" xmlns="http://www.w3.org/2000/svg">
  <path d="M 498.5 586.5  C 502.7 586.5  506 589.8  506 594  C 506 598.2  502.7 601.5  498.5 601.5  C 494.3 601.5  491 598.2  491 594  C 491 589.8  494.3 586.5  498.5 586.5  Z " fill-rule="nonzero" fill="rgba(240, 240, 240, 1)" stroke="none" class="fill" />
  <path d="M 498.5 587  C 502.42 587  505.5 590.08  505.5 594  C 505.5 597.92  502.42 601  498.5 601  C 494.58 601  491.5 597.92  491.5 594  C 491.5 590.08  494.58 587  498.5 587  Z " stroke-width="1" stroke-dasharray="0" stroke="rgba(0, 114, 231, 1)" fill="none" class="stroke" stroke-dashoffset="0.5" />
  <path d="M 498.5 597.75  C 496.4 597.75  494.75 596.1  494.75 594  C 494.75 591.9  496.4 590.25  498.5 590.25  C 500.6 590.25  502.25 591.9  502.25 594  C 502.25 596.1  500.6 597.75  498.5 597.75  " fill-rule="nonzero" fill="rgba(0, 114, 231, 1)" stroke="none" class="stroke btn_check" />
</svg>