<?xml version="1.0" encoding="utf-8"?>
<svg version="1.1" xmlns:xlink="http://www.w3.org/1999/xlink" width="15px" height="15px" viewBox="491 614.5 15 15" xmlns="http://www.w3.org/2000/svg">
  <path d="M 498.5 614.5  C 502.7 614.5  506 617.8  506 622  C 506 626.2  502.7 629.5  498.5 629.5  C 494.3 629.5  491 626.2  491 622  C 491 617.8  494.3 614.5  498.5 614.5  Z " fill-rule="nonzero" fill="rgba(240, 240, 240, 1)" stroke="none" class="fill" />
  <path d="M 498.5 615  C 502.42 615  505.5 618.08  505.5 622  C 505.5 625.92  502.42 629  498.5 629  C 494.58 629  491.5 625.92  491.5 622  C 491.5 618.08  494.58 615  498.5 615  Z " stroke-width="1" stroke-dasharray="0" stroke="rgba(0, 114, 231, 1)" fill="none" class="stroke" stroke-dashoffset="0.5" />
  <path d="M 498.5 625.75  C 496.4 625.75  494.75 624.1  494.75 622  C 494.75 619.9  496.4 618.25  498.5 618.25  C 500.6 618.25  502.25 619.9  502.25 622  C 502.25 624.1  500.6 625.75  498.5 625.75  " fill-rule="nonzero" fill="rgba(0, 114, 231, 1)" stroke="none" class="stroke btn_check" />
</svg>